<svg width="24" height="24" viewBox="0 0 24 24" fill="none" xmlns="http://www.w3.org/2000/svg">
<path d="M14.0574 0C14.1761 0.0795755 14.2906 0.165411 14.4002 0.257143C16.4208 2.28 18.4448 4.304 20.4722 6.32914C20.5565 6.40854 20.623 6.5049 20.6673 6.61187C20.7116 6.71883 20.7328 6.83398 20.7294 6.94971C20.7294 11.9166 20.7294 16.8823 20.7294 21.8469C20.7294 22.9989 20.2357 23.6503 19.1179 23.9691C19.1179 23.9691 19.0939 23.9897 19.0837 24H4.73165L4.45737 23.9109C4.06262 23.7932 3.71618 23.5516 3.46923 23.222C3.22227 22.8923 3.08789 22.4919 3.08594 22.08C3.08594 15.36 3.08594 8.64 3.08594 1.92V1.896C3.09744 1.5111 3.22279 1.13825 3.44614 0.824578C3.6695 0.510904 3.98083 0.270487 4.34079 0.133714C4.45737 0.0857143 4.60137 0.0445714 4.73165 0H14.0574ZM19.7797 7.26514H15.5797C15.2959 7.2856 15.011 7.24471 14.7444 7.14524C14.4778 7.04578 14.2358 6.89007 14.0347 6.68871C13.8337 6.48735 13.6784 6.24506 13.5793 5.97831C13.4803 5.71157 13.4399 5.42662 13.4608 5.14286V0.946286H5.19451C4.42308 0.946286 4.02879 1.34057 4.02879 2.11543V21.8674C4.02879 22.6606 4.42079 23.056 5.20479 23.0537H18.6071C19.3819 23.0537 19.7797 22.6594 19.7797 21.888V7.26514ZM14.4277 1.71429C14.4277 1.75886 14.4277 1.824 14.4277 1.88914C14.4277 2.98971 14.4277 4.09371 14.4277 5.19429C14.4143 5.34485 14.4344 5.4965 14.4863 5.63844C14.5383 5.78038 14.6209 5.90913 14.7283 6.01552C14.8356 6.1219 14.9651 6.20332 15.1075 6.25397C15.25 6.30463 15.4018 6.32327 15.5522 6.30857H18.8574C18.9225 6.30857 18.9877 6.30857 19.0254 6.30857L14.4277 1.71429Z" fill="#BFA372"/>
<path d="M11.9059 17.2388H8.20649C7.86363 17.2388 7.63392 17.0434 7.64077 16.7519C7.64763 16.4605 7.85335 16.2822 8.1962 16.2822C10.6716 16.2822 13.1459 16.2822 15.6191 16.2822C15.9619 16.2822 16.1711 16.4708 16.1711 16.7554C16.1711 17.0399 15.9585 17.2354 15.6019 17.2354L11.9059 17.2388Z" fill="#BFA372"/>
<path d="M11.9096 12.994H8.3027C8.22385 12.994 8.14499 12.994 8.06956 12.994C7.95574 12.9857 7.84903 12.9355 7.76993 12.8532C7.69083 12.771 7.64491 12.6624 7.64099 12.5483C7.63653 12.4342 7.67318 12.3223 7.74429 12.233C7.8154 12.1436 7.91622 12.0827 8.02842 12.0615C8.10719 12.0563 8.18622 12.0563 8.26499 12.0615H15.7084C15.7712 12.0628 15.833 12.0766 15.8903 12.102C15.9477 12.1275 15.9994 12.1641 16.0425 12.2097C16.0856 12.2553 16.1191 12.3091 16.1412 12.3678C16.1634 12.4265 16.1736 12.4891 16.1713 12.5518C16.1704 12.6122 16.1575 12.6719 16.1333 12.7274C16.1091 12.7828 16.0742 12.8329 16.0305 12.8747C15.9868 12.9165 15.9352 12.9492 15.8787 12.9708C15.8222 12.9925 15.762 13.0027 15.7016 13.0009C15.3347 13.0009 14.9678 13.0009 14.601 13.0009L11.9096 12.994Z" fill="#BFA372"/>
<path d="M11.9073 15.1129H8.32445C8.23081 15.118 8.13695 15.118 8.04331 15.1129C7.93678 15.0982 7.8386 15.0472 7.76538 14.9684C7.69217 14.8897 7.64843 14.788 7.64157 14.6807C7.63472 14.5734 7.66516 14.467 7.72775 14.3796C7.79034 14.2921 7.88123 14.229 7.98502 14.2009C8.07481 14.1795 8.16706 14.1703 8.25931 14.1735H15.5416C15.6433 14.1711 15.7448 14.1827 15.8433 14.2078C15.9336 14.2454 16.0096 14.3107 16.0605 14.3942C16.1114 14.4778 16.1345 14.5753 16.1265 14.6728C16.1185 14.7703 16.0798 14.8627 16.016 14.9369C15.9522 15.011 15.8665 15.063 15.7713 15.0855C15.6789 15.0923 15.586 15.0923 15.4936 15.0855L11.9073 15.1129Z" fill="#BFA372"/>
<path d="M10.6889 18.408C11.5084 18.408 12.3278 18.408 13.1472 18.408C13.3137 18.4135 13.4729 18.4779 13.5964 18.5897C13.6486 18.6468 13.685 18.7165 13.7021 18.792C13.7192 18.8674 13.7164 18.9461 13.6939 19.0201C13.6714 19.0941 13.6301 19.161 13.5739 19.2142C13.5177 19.2674 13.4487 19.3051 13.3735 19.3235C13.283 19.3474 13.1894 19.3578 13.0958 19.3543H8.12779C8.06271 19.3553 7.99812 19.343 7.93793 19.3182C7.87774 19.2935 7.82322 19.2567 7.77768 19.2102C7.73215 19.1637 7.69654 19.1084 7.67303 19.0477C7.64952 18.9871 7.6386 18.9222 7.64093 18.8572C7.64169 18.7944 7.6553 18.7325 7.68092 18.6752C7.70654 18.6179 7.74362 18.5665 7.78988 18.5241C7.83614 18.4817 7.8906 18.4492 7.94989 18.4286C8.00919 18.4081 8.07207 18.3999 8.13465 18.4046L10.6889 18.408Z" fill="#BFA372"/>
</svg>
