<svg width="32" height="33" viewBox="0 0 32 33" fill="none" xmlns="http://www.w3.org/2000/svg">
<g clip-path="url(#clip0_13_13453)">
<path d="M25.8509 29.24C26.1606 29.3345 26.4628 29.4522 26.7549 29.592C26.9555 29.7059 27.1234 29.8694 27.2425 30.067C27.3616 30.2645 27.4279 30.4894 27.4349 30.72C27.4349 31.312 27.4349 31.896 27.4349 32.488C27.4393 32.5533 27.4301 32.6188 27.4079 32.6804C27.3857 32.7419 27.3509 32.7982 27.3058 32.8456C27.2606 32.893 27.2061 32.9305 27.1457 32.9557C27.0853 32.9809 27.0203 32.9933 26.9549 32.992H4.85887C4.72566 33 4.59208 33 4.45887 32.992C4.39546 32.99 4.3331 32.9752 4.27552 32.9486C4.21794 32.9219 4.16633 32.884 4.12376 32.8369C4.0812 32.7899 4.04855 32.7347 4.02778 32.6748C4.00701 32.6148 3.99854 32.5513 4.00287 32.488C4.00287 31.92 4.00287 31.352 4.00287 30.792C4.03298 30.4399 4.17881 30.1077 4.4176 29.8472C4.6564 29.5867 4.97471 29.4126 5.32287 29.352C5.49087 29.352 5.60287 29.304 5.61887 29.088C5.82546 26.1271 7.09885 23.3415 9.20287 21.248C10.0447 20.3728 10.9842 19.5971 12.0029 18.936C12.2895 18.7724 12.5361 18.5471 12.7249 18.2764C12.9136 18.0057 13.0398 17.6964 13.0941 17.3709C13.1485 17.0454 13.1298 16.7118 13.0393 16.3945C12.9488 16.0771 12.7888 15.7839 12.5709 15.536C12.3591 15.3255 12.1258 15.1378 11.8749 14.976C9.30877 13.3323 7.34406 10.9017 6.27487 8.048C5.8865 6.97553 5.66001 5.85119 5.60287 4.712C5.5507 4.69235 5.49724 4.67631 5.44287 4.664C5.03118 4.62337 4.65124 4.42487 4.38275 4.11015C4.11427 3.79542 3.97812 3.38894 4.00287 2.976V1.672C4.00287 1.144 4.15487 1 4.68287 1H26.6989C27.3389 1 27.4589 1.12 27.4589 1.8V2.896C27.482 3.11003 27.4617 3.32653 27.3992 3.53253C27.3366 3.73852 27.2332 3.92979 27.095 4.09486C26.9568 4.25993 26.7867 4.39542 26.595 4.49322C26.4032 4.59101 26.1936 4.6491 25.9789 4.664C25.9789 4.664 25.8989 4.664 25.9789 4.736C25.7149 5.8 25.6029 6.84 25.2429 7.84C24.2304 10.7569 22.2555 13.2425 19.6429 14.888L19.2029 15.192C18.914 15.395 18.6783 15.6645 18.5155 15.9778C18.3527 16.2911 18.2678 16.639 18.2678 16.992C18.2678 17.345 18.3527 17.6929 18.5155 18.0062C18.6783 18.3195 18.914 18.589 19.2029 18.792C20.2859 19.513 21.2937 20.3412 22.2109 21.264C24.0509 23.1182 25.2649 25.5014 25.6829 28.08C25.7789 28.48 25.8109 28.88 25.8509 29.24ZM6.65887 4.688C6.65887 4.88 6.65887 5.04 6.65887 5.192C6.81155 6.71325 7.28313 8.18524 8.04287 9.512C9.17834 11.4586 10.764 13.1046 12.6669 14.312C13.1264 14.5998 13.5053 14.9997 13.7679 15.4741C14.0305 15.9484 14.1683 16.4818 14.1683 17.024C14.1683 17.5662 14.0305 18.0996 13.7679 18.5739C13.5053 19.0483 13.1264 19.4482 12.6669 19.736C12.3469 19.952 12.0189 20.168 11.7069 20.4C9.30319 22.0994 7.59097 24.6067 6.88287 27.464C6.74687 28.056 6.69087 28.672 6.58687 29.328C7.05887 29.328 7.43487 29.328 7.81087 29.328C7.89087 29.328 7.97887 29.216 8.04287 29.144C8.33606 28.7157 8.65673 28.3068 9.00287 27.92C9.85389 27.1447 10.8524 26.5488 11.9389 26.168C12.5949 25.904 13.2749 25.696 13.9389 25.432C14.2324 25.3411 14.5044 25.1913 14.7382 24.9919C14.972 24.7925 15.1628 24.5475 15.2989 24.272C15.3506 24.1983 15.4187 24.1376 15.4978 24.0946C15.5769 24.0515 15.6649 24.0274 15.7549 24.024C15.9269 24.0693 16.0789 24.1706 16.1869 24.312C16.4276 24.6034 16.6955 24.8712 16.9869 25.112C17.3972 25.334 17.8253 25.5213 18.2669 25.672C19.2509 26.104 20.2669 26.472 21.2189 26.976C22.1789 27.4442 22.9619 28.2103 23.4509 29.16C23.4756 29.1995 23.5083 29.2334 23.5469 29.2596C23.5854 29.2857 23.629 29.3036 23.6749 29.312C24.0509 29.312 24.4269 29.312 24.8349 29.312C24.8349 29.096 24.8349 28.92 24.8349 28.752C24.5751 26.4754 23.6324 24.3308 22.1309 22.6C21.1642 21.4767 20.0407 20.4986 18.7949 19.696C18.3353 19.4082 17.9565 19.0083 17.6938 18.5339C17.4312 18.0596 17.2934 17.5262 17.2934 16.984C17.2934 16.4418 17.4312 15.9084 17.6938 15.4341C17.9565 14.9597 18.3353 14.5598 18.7949 14.272L19.4029 13.864C22.0964 12.0914 23.9888 9.33463 24.6749 6.184C24.7709 5.696 24.8109 5.192 24.8829 4.672L6.65887 4.688Z" fill="white"/>
<path d="M15.7631 7.94434H21.9151C22.6191 7.94434 22.8111 8.27234 22.4591 8.89634C21.4924 10.6111 20.1187 12.0617 18.4591 13.1203C17.8863 13.4534 17.3919 13.9058 17.0095 14.447C16.6271 14.9881 16.3657 15.6052 16.2431 16.2563C16.231 16.3808 16.1724 16.4961 16.0789 16.5792C15.9854 16.6622 15.8641 16.7069 15.7391 16.7043C15.6144 16.7088 15.4929 16.6645 15.4003 16.5808C15.3077 16.4972 15.2513 16.3808 15.2431 16.2563C15.119 15.6047 14.8562 14.9873 14.4724 14.4462C14.0887 13.9051 13.593 13.4529 13.0191 13.1203C11.363 12.0575 9.99022 10.6078 9.01906 8.89634C8.66706 8.27234 8.86706 7.94434 9.57106 7.94434H15.7631Z" fill="white"/>
<path d="M16.2427 18.3362C16.2427 18.4482 16.2427 18.5602 16.2427 18.6642C16.2344 18.7823 16.1806 18.8926 16.0925 18.9717C16.0044 19.0509 15.889 19.0926 15.7707 19.0882C15.7093 19.0948 15.6471 19.0887 15.5882 19.0702C15.5293 19.0517 15.4748 19.0212 15.4282 18.9806C15.3817 18.94 15.344 18.8903 15.3175 18.8344C15.2911 18.7786 15.2765 18.7179 15.2747 18.6562C15.2587 18.4698 15.2587 18.2825 15.2747 18.0962C15.2691 18.0299 15.2774 17.9631 15.2991 17.9002C15.3207 17.8372 15.3552 17.7795 15.4003 17.7306C15.4454 17.6817 15.5002 17.6427 15.5612 17.6161C15.6223 17.5896 15.6881 17.5759 15.7547 17.5762C16.0587 17.5762 16.2427 17.7602 16.2667 18.1042C16.2708 18.1815 16.2708 18.2589 16.2667 18.3362H16.2427Z" fill="white"/>
<path d="M16.235 21V21.16C16.235 21.56 16.035 21.768 15.723 21.76C15.411 21.752 15.243 21.552 15.235 21.176C15.227 21.0322 15.227 20.8879 15.235 20.744C15.235 20.6125 15.2873 20.4863 15.3803 20.3933C15.4733 20.3003 15.5995 20.248 15.731 20.248C15.8626 20.248 15.9887 20.3003 16.0817 20.3933C16.1748 20.4863 16.227 20.6125 16.227 20.744C16.227 20.832 16.227 20.92 16.227 21.008L16.235 21Z" fill="white"/>
</g>
<defs>
<clipPath id="clip0_13_13453">
<rect width="32" height="32" fill="white" transform="translate(0 0.839844)"/>
</clipPath>
</defs>
</svg>
