<svg width="17" height="17" viewBox="0 0 17 17" fill="none" xmlns="http://www.w3.org/2000/svg">
<g clip-path="url(#clip0_13_13411)">
<path d="M9.49906 2.17285H7.89356C7.67174 2.17285 7.49219 2.35179 7.49219 2.57285C7.49219 2.79391 7.67174 2.97285 7.89356 2.97285H9.49906C9.72088 2.97285 9.90043 2.79391 9.90043 2.57285C9.90043 2.35179 9.72088 2.17285 9.49906 2.17285Z" fill="#BFA372"/>
<path d="M11.2384 0.839844H4.81643C3.93128 0.839844 3.21094 1.55772 3.21094 2.43984V15.2398C3.21094 16.122 3.93128 16.8398 4.81643 16.8398H11.2384C12.1235 16.8398 12.8439 16.122 12.8439 15.2398V2.43984C12.8439 1.55772 12.1235 0.839844 11.2384 0.839844ZM12.0411 15.2398C12.0411 15.6817 11.6818 16.0398 11.2384 16.0398H4.81643C4.37304 16.0398 4.01368 15.6817 4.01368 15.2398V2.43984C4.01368 1.99797 4.37304 1.63984 4.81643 1.63984H11.2384C11.6818 1.63984 12.0411 1.99797 12.0411 2.43984V15.2398Z" fill="#BFA372"/>
<path d="M8.02735 15.5063C8.4707 15.5063 8.8301 15.1481 8.8301 14.7063C8.8301 14.2644 8.4707 13.9062 8.02735 13.9062C7.58401 13.9062 7.22461 14.2644 7.22461 14.7063C7.22461 15.1481 7.58401 15.5063 8.02735 15.5063Z" fill="#BFA372"/>
<path d="M6.55567 2.97285C6.77734 2.97285 6.95704 2.79377 6.95704 2.57285C6.95704 2.35194 6.77734 2.17285 6.55567 2.17285C6.334 2.17285 6.1543 2.35194 6.1543 2.57285C6.1543 2.79377 6.334 2.97285 6.55567 2.97285Z" fill="#BFA372"/>
</g>
<defs>
<clipPath id="clip0_13_13411">
<rect width="16.0549" height="16" fill="white" transform="translate(0 0.839844)"/>
</clipPath>
</defs>
</svg>
