<svg width="48" height="48" viewBox="0 0 48 48" fill="none" xmlns="http://www.w3.org/2000/svg">
<path d="M28.1147 0C28.3523 0.159151 28.5812 0.330822 28.8004 0.514286C32.8416 4.56 36.8896 8.608 40.9444 12.6583C41.113 12.8171 41.246 13.0098 41.3346 13.2237C41.4233 13.4377 41.4656 13.668 41.4587 13.8994C41.4587 23.8331 41.4587 33.7646 41.4587 43.6937C41.4587 45.9977 40.4713 47.3006 38.2359 47.9383C38.2359 47.9383 38.1879 47.9794 38.1673 48H9.4633L8.91473 47.8217C8.12523 47.5863 7.43236 47.1033 6.93845 46.4439C6.44454 45.7846 6.17579 44.9838 6.17188 44.16C6.17188 30.72 6.17188 17.28 6.17188 3.84V3.792C6.19488 3.0222 6.44558 2.2765 6.89229 1.64916C7.339 1.02181 7.96167 0.540973 8.68159 0.267429C8.91473 0.171429 9.20273 0.0891429 9.4633 0H28.1147ZM39.5593 14.5303H31.1593C30.5917 14.5712 30.0219 14.4894 29.4888 14.2905C28.9556 14.0916 28.4715 13.7801 28.0695 13.3774C27.6674 12.9747 27.3568 12.4901 27.1587 11.9566C26.9606 11.4231 26.8797 10.8532 26.9216 10.2857V1.89257H10.389C8.84616 1.89257 8.05759 2.68114 8.05759 4.23086V43.7349C8.05759 45.3211 8.84159 46.112 10.4096 46.1074H37.2142C38.7639 46.1074 39.5593 45.3189 39.5593 43.776V14.5303ZM28.8553 3.42857C28.8553 3.51771 28.8553 3.648 28.8553 3.77829C28.8553 5.97943 28.8553 8.18743 28.8553 10.3886C28.8287 10.6897 28.8688 10.993 28.9727 11.2769C29.0766 11.5608 29.2418 11.8183 29.4565 12.031C29.6713 12.2438 29.9303 12.4066 30.2151 12.5079C30.4999 12.6093 30.8036 12.6465 31.1044 12.6171H37.7147C37.845 12.6171 37.9753 12.6171 38.0507 12.6171L28.8553 3.42857Z" fill="#BFA372"/>
<path d="M23.8079 34.4776H16.4091C15.7234 34.4776 15.2639 34.0867 15.2776 33.5039C15.2914 32.921 15.7028 32.5645 16.3885 32.5645C21.3394 32.5645 26.2879 32.5645 31.2342 32.5645C31.9199 32.5645 32.3382 32.9416 32.3382 33.5107C32.3382 34.0799 31.9131 34.4707 31.1999 34.4707L23.8079 34.4776Z" fill="#BFA372"/>
<path d="M23.8152 25.9891H16.6015C16.4438 25.9891 16.2861 25.9891 16.1352 25.9891C15.9076 25.9723 15.6942 25.872 15.536 25.7075C15.3778 25.5429 15.2859 25.3258 15.2781 25.0976C15.2691 24.8694 15.3425 24.6456 15.4847 24.4669C15.6269 24.2882 15.8285 24.1665 16.0529 24.1239C16.2105 24.1136 16.3685 24.1136 16.5261 24.1239H31.4129C31.5384 24.1266 31.6621 24.1541 31.7768 24.205C31.8915 24.2559 31.9949 24.3291 32.0811 24.4204C32.1672 24.5116 32.2344 24.6191 32.2786 24.7366C32.3228 24.854 32.3432 24.9791 32.3386 25.1045C32.3369 25.2254 32.3111 25.3448 32.2627 25.4557C32.2144 25.5666 32.1445 25.6667 32.057 25.7503C31.9696 25.8339 31.8664 25.8993 31.7535 25.9427C31.6406 25.986 31.5201 26.0064 31.3992 26.0028C30.6655 26.0028 29.9318 26.0028 29.1981 26.0028L23.8152 25.9891Z" fill="#BFA372"/>
<path d="M23.8146 30.2258H16.6489C16.4616 30.2361 16.2739 30.2361 16.0866 30.2258C15.8736 30.1965 15.6772 30.0944 15.5308 29.9369C15.3843 29.7793 15.2969 29.5761 15.2831 29.3614C15.2694 29.1468 15.3303 28.934 15.4555 28.7591C15.5807 28.5843 15.7625 28.458 15.97 28.4018C16.1496 28.359 16.3341 28.3405 16.5186 28.3469H31.0832C31.2865 28.3422 31.4895 28.3653 31.6866 28.4155C31.8672 28.4908 32.0192 28.6214 32.121 28.7885C32.2227 28.9556 32.2689 29.1506 32.2529 29.3456C32.2369 29.5406 32.1596 29.7255 32.032 29.8738C31.9043 30.022 31.733 30.1261 31.5426 30.1709C31.3577 30.1846 31.1721 30.1846 30.9872 30.1709L23.8146 30.2258Z" fill="#BFA372"/>
<path d="M21.374 36.8161C23.0128 36.8161 24.6517 36.8161 26.2905 36.8161C26.6236 36.8269 26.9419 36.9557 27.1888 37.1795C27.2932 37.2937 27.3662 37.4331 27.4004 37.584C27.4346 37.7349 27.4289 37.8921 27.384 38.0402C27.339 38.1882 27.2562 38.322 27.1439 38.4284C27.0315 38.5348 26.8934 38.6101 26.7431 38.6469C26.562 38.6949 26.3749 38.7157 26.1877 38.7086H16.2517C16.1215 38.7106 15.9923 38.686 15.872 38.6365C15.7516 38.5869 15.6425 38.5134 15.5515 38.4204C15.4604 38.3274 15.3892 38.2169 15.3422 38.0955C15.2951 37.9741 15.2733 37.8444 15.278 37.7144C15.2795 37.5888 15.3067 37.465 15.3579 37.3504C15.4092 37.2358 15.4833 37.133 15.5759 37.0482C15.6684 36.9633 15.7773 36.8984 15.8959 36.8573C16.0145 36.8162 16.1402 36.7998 16.2654 36.8092L21.374 36.8161Z" fill="#BFA372"/>
</svg>
