<svg width="20" height="20" viewBox="0 0 20 20" fill="none" xmlns="http://www.w3.org/2000/svg">
<g clip-path="url(#clip0_646_20050)">
<path d="M8.73115 1.20843C10.2053 1.20682 11.6468 1.64146 12.8728 2.45725C14.0988 3.27304 15.0542 4.43324 15.6177 5.79077C16.1813 7.14831 16.3277 8.64204 16.0384 10.0826C15.7491 11.5232 15.0372 12.8457 13.9928 13.8825C13.301 14.5719 12.4798 15.1188 11.5759 15.4919C10.6721 15.865 9.70339 16.057 8.72509 16.057C7.74679 16.057 6.77807 15.865 5.87424 15.4919C4.97041 15.1188 4.14918 14.5719 3.45741 13.8825C2.76565 13.1931 2.21692 12.3747 1.84254 11.474C1.46816 10.5732 1.27547 9.60783 1.27547 8.63287C1.27547 7.65792 1.46816 6.69251 1.84254 5.79178C2.21692 4.89104 2.76565 4.0726 3.45741 3.38321C4.14807 2.69063 4.96995 2.14172 5.87528 1.76838C6.78062 1.39504 7.75137 1.20471 8.73115 1.20843ZM8.73115 0.000226994C6.72275 -0.0142772 4.77162 0.666705 3.21114 1.92682C1.65066 3.18693 0.577686 4.94796 0.175546 6.90901C-0.226595 8.87007 0.0670593 10.9094 1.00633 12.6787C1.94561 14.4479 3.4722 15.8371 5.32528 16.6091C7.17836 17.381 9.24291 17.4877 11.1662 16.9109C13.0894 16.3342 14.752 15.1097 15.8699 13.4468C16.9878 11.7839 17.4915 9.78577 17.2951 7.79378C17.0987 5.80179 16.2142 3.9396 14.7929 2.52538C13.1823 0.924687 11.0057 0.0179495 8.73115 0.000226994Z" fill="#BFA372"/>
<path d="M14.6475 14.5352L19.4605 19.3317" stroke="#BFA372" stroke-miterlimit="10" stroke-linecap="round"/>
</g>
<defs>
<clipPath id="clip0_646_20050">
<rect width="20" height="19.9316" fill="white" transform="translate(0 0.0341797)"/>
</clipPath>
</defs>
</svg>
