<svg width="200" height="69" viewBox="0 0 200 69" fill="none" xmlns="http://www.w3.org/2000/svg">
<g clip-path="url(#clip0_13_13385)">
<path d="M0 22.6222L38.0406 9.85645L47.5728 11.1874L9.29934 24.0019L0 22.6222Z" fill="#1D262F"/>
<path d="M0 22.622V13.6056L38.0646 0.839844V9.84812L0 22.622Z" fill="#C7A96F"/>
<path d="M38.0327 0.847656L47.573 1.85399V11.1869L38.0407 9.85593L38.0327 0.847656Z" fill="#BCBCB7"/>
<path d="M28.6126 68.5317L28.6207 27.3452L9.79713 33.651L9.7891 68.5317H0.345215V27.9295L38.0244 15.2773V68.5317H28.6126Z" fill="url(#paint0_linear_13_13385)"/>
<path d="M26.2356 28.1485L9.79713 33.6508L9.7891 68.5315H0.345215V27.9294L26.2356 19.2295V28.1485Z" fill="#636258"/>
<path d="M9.78906 33.6592L19.2008 35.0226V68.5317H9.79709L9.78906 33.6592Z" fill="url(#paint1_linear_13_13385)"/>
<path d="M19.2011 35.0474L9.79736 33.6515L28.6209 27.3457V31.5171L19.2011 35.0474Z" fill="#1D262F"/>
<path d="M28.621 31.5166L28.6129 68.5317H19.2012V35.0225L28.621 31.5166Z" fill="url(#paint2_linear_13_13385)"/>
<path d="M38.0166 15.2773L47.4284 16.6489V68.5317H38.0246L38.0166 15.2773Z" fill="#BCBCB7"/>
<path d="M200 50.4017V68.5075H197.743V55.3847L197.815 53.0474H197.711L195.728 68.467H191.785V50.4017H194.049V62.713L193.969 65.8619H194.065L196.001 50.4423L200 50.4017ZM182.847 50.4017V68.5075H180.59V55.3847L180.662 53.0474H180.566L178.582 68.467H174.631V50.4017H176.896V62.713L176.824 65.8619H176.92L178.847 50.4423L182.847 50.4017ZM162.931 68.5075H160.273V50.4017H166.328V52.7634H162.931V68.5075ZM147.111 53.3233V65.5616C147.08 65.8707 147.151 66.1815 147.312 66.4462C147.395 66.5282 147.495 66.591 147.604 66.6302C147.714 66.6695 147.83 66.6842 147.946 66.6734C148.056 66.6872 148.168 66.6778 148.274 66.6456C148.381 66.6135 148.48 66.5594 148.564 66.4868C148.725 66.216 148.792 65.8995 148.757 65.5859V53.3233C148.786 53.0179 148.719 52.7111 148.564 52.4468C148.489 52.3605 148.394 52.2934 148.288 52.2511C148.182 52.2088 148.068 52.1924 147.954 52.2034C147.838 52.1904 147.72 52.2032 147.609 52.2411C147.498 52.2789 147.396 52.3408 147.312 52.4225C147.148 52.6923 147.078 53.0089 147.111 53.3233ZM144.453 65.7888V53.0961C144.416 52.6292 144.498 52.1605 144.69 51.7344C144.883 51.3084 145.18 50.939 145.553 50.6614C146.272 50.2465 147.086 50.0283 147.914 50.0283C148.742 50.0283 149.556 50.2465 150.275 50.6614C150.657 50.9326 150.962 51.2998 151.161 51.7268C151.36 52.1538 151.444 52.6258 151.407 53.0961V65.7888C151.446 66.256 151.366 66.7255 151.173 67.152C150.98 67.5785 150.682 67.9475 150.307 68.2235C149.587 68.6795 148.746 68.9006 147.898 68.8565C147.076 68.8917 146.263 68.6707 145.569 68.2235C145.192 67.9488 144.891 67.5805 144.695 67.154C144.5 66.7276 144.416 66.2574 144.453 65.7888ZM131.443 52.8039V65.026C131.443 67.5634 130.298 68.8322 128.006 68.8322V66.1703C128.221 66.183 128.434 66.1199 128.608 65.9917C128.849 65.6721 128.955 65.27 128.906 64.8718V50.4017H135.587V68.4751H132.929V52.7634L131.443 52.8039ZM116.073 53.3639V65.6022C116.042 65.9113 116.113 66.222 116.274 66.4868C116.451 66.6283 116.67 66.7053 116.896 66.7053C117.122 66.7053 117.341 66.6283 117.518 66.4868C117.679 66.216 117.746 65.8995 117.711 65.5859V53.3233C117.74 53.0179 117.673 52.7111 117.518 52.4468C117.442 52.361 117.348 52.2943 117.242 52.252C117.136 52.2097 117.021 52.1931 116.908 52.2034C116.792 52.1904 116.674 52.2032 116.563 52.2411C116.452 52.2789 116.35 52.3408 116.266 52.4225C116.105 52.6932 116.037 53.0098 116.073 53.3233V53.3639ZM113.415 65.8294V53.0961C113.378 52.6292 113.46 52.1605 113.652 51.7344C113.845 51.3084 114.142 50.939 114.515 50.6614C115.234 50.2465 116.048 50.0283 116.876 50.0283C117.704 50.0283 118.518 50.2465 119.237 50.6614C119.619 50.9326 119.924 51.2998 120.123 51.7268C120.322 52.1538 120.406 52.6258 120.369 53.0961V65.7888C120.408 66.256 120.328 66.7255 120.135 67.152C119.942 67.5785 119.644 67.9475 119.269 68.2235C118.549 68.6786 117.708 68.8995 116.86 68.8565C116.035 68.8933 115.219 68.6723 114.523 68.2235C114.148 67.9473 113.849 67.5785 113.655 67.1523C113.461 66.726 113.378 66.2566 113.415 65.7888V65.8294ZM100.381 68.5075H97.7151V50.4017H100.381V57.3324H101.867V50.4017H104.525V68.5075H101.867V59.694H100.381V68.5075ZM83.7099 68.5075H81.2204L83.5171 59.3126L81.4854 50.3855H84.2479C84.6494 52.3062 84.9439 53.7778 85.1313 54.8004C85.3079 55.8229 85.4364 56.7238 85.5007 57.4947C85.5814 56.3394 85.7751 55.1949 86.0789 54.0781C86.3358 53.1691 86.5205 52.4955 86.633 52.0573L87.0586 50.3855H89.548L87.3878 58.639L89.5962 68.4913H86.8418L85.8861 64.1008C85.7737 63.5246 85.6452 62.7536 85.4926 61.796C85.4926 61.4876 85.4043 61.0737 85.332 60.5462C85.3091 61.84 85.1311 63.1262 84.802 64.3767C84.4219 65.8159 84.0659 67.1928 83.734 68.5075H83.7099ZM73.5914 68.5075H67.6328V50.4017H73.5593V52.7634H70.2989V57.4136H73.4388V59.7752H70.2989V66.1459H73.6155L73.5914 68.5075ZM51.8608 50.4017H59.1766V52.7634H56.8638V68.5075H54.1977V52.7634H51.8608V50.4017Z" fill="#C8AA6F"/>
<path d="M200 44.6967H191.929V16.7385H199.96V20.3824H195.527V27.5322H199.96V31.1842H195.471V41.0447H199.976L200 44.6967ZM178.358 41.3287C178.916 41.3919 179.48 41.2694 179.964 40.9797C180.349 40.6389 180.542 39.8598 180.542 38.6506V32.0364C180.494 31.3817 180.226 31.0084 179.739 30.9164C179.263 30.8207 178.779 30.7745 178.294 30.7785L178.358 41.3287ZM189.777 44.6642H186.163V16.7385H189.777V44.6642ZM178.358 16.7385V27.443C180.408 27.443 181.862 27.8217 182.718 28.5791C183.698 29.4448 184.188 30.9786 184.188 33.1807V39.2349C184.188 41.1177 183.738 42.5 182.839 43.3819C181.939 44.2638 180.502 44.7021 178.526 44.6967H174.744V16.7385H178.358ZM167.115 44.6967H163.501V16.7385H167.115V27.443H169.123V16.7385H172.736V44.6967H169.123V31.0869H167.115V44.6967ZM155.664 31.6387V41.3287H156.378C156.594 41.3521 156.813 41.3215 157.015 41.2394C157.216 41.1573 157.395 41.0263 157.535 40.858C157.815 40.3285 157.935 39.7273 157.88 39.1294V33.838C157.935 33.2401 157.815 32.6389 157.535 32.1094C157.395 31.9411 157.216 31.8101 157.015 31.728C156.813 31.646 156.594 31.6153 156.378 31.6387H155.664ZM155.664 19.9117V28.3438H156.467C156.658 28.3638 156.851 28.3332 157.027 28.2549C157.203 28.1766 157.356 28.0535 157.47 27.8974C157.703 27.3906 157.803 26.8315 157.76 26.2743V21.9893C157.803 21.4338 157.709 20.876 157.486 20.3662C157.367 20.2124 157.211 20.0922 157.032 20.0169C156.853 19.9416 156.659 19.9137 156.467 19.9361L155.664 19.9117ZM152.05 44.6967V16.7385H157.165C157.759 16.6956 158.354 16.7936 158.904 17.0247C159.453 17.2558 159.941 17.6136 160.329 18.0695C161.099 19.1351 161.482 20.4364 161.413 21.754V26.1851C161.448 26.6491 161.387 27.1153 161.233 27.554C161.08 27.9928 160.838 28.3944 160.522 28.7333C159.808 29.3145 158.969 29.7176 158.073 29.9101C159.019 30.0781 159.899 30.5143 160.61 31.168C161.271 32.0902 161.576 33.2241 161.47 34.3574V38.7966C161.548 40.2701 161.19 41.7337 160.442 43.0005C160.08 43.5532 159.581 44.0006 158.995 44.2982C158.409 44.5957 157.756 44.7331 157.101 44.6967H152.05ZM150.042 16.7385V44.6967H146.958V24.4077L147.063 20.7882H146.958L144.26 44.6723H138.928V16.7385H141.996V35.7452L141.891 40.6145H142.028L144.646 16.7385H150.042ZM136.888 26.9317H133.307V21.2508C133.346 20.7837 133.257 20.3148 133.05 19.8955C132.956 19.7715 132.834 19.6725 132.694 19.6074C132.554 19.5423 132.4 19.5131 132.247 19.5222C132.086 19.5057 131.925 19.5272 131.774 19.585C131.623 19.6427 131.488 19.7351 131.379 19.8549C131.163 20.2858 131.074 20.7702 131.122 21.2508V40.1438C131.074 40.6184 131.169 41.0967 131.395 41.5154C131.5 41.6382 131.631 41.7346 131.779 41.7966C131.927 41.8587 132.087 41.8846 132.247 41.8724C132.397 41.8818 132.547 41.8568 132.686 41.7991C132.825 41.7415 132.949 41.6528 133.05 41.5397C133.264 41.1084 133.354 40.6243 133.307 40.1438V34.1058H136.92V40.5171C136.98 41.2139 136.875 41.9149 136.614 42.5625C136.353 43.2102 135.943 43.7858 135.419 44.2422C134.488 44.927 133.356 45.2731 132.206 45.2242C131.069 45.2716 129.95 44.9252 129.034 44.2422C128.497 43.7928 128.072 43.2208 127.795 42.5732C127.519 41.9256 127.399 41.2209 127.444 40.5171V20.8937C127.392 20.1977 127.5 19.4988 127.761 18.8524C128.021 18.2059 128.427 17.6295 128.946 17.1687C129.896 16.5246 131.014 16.1807 132.158 16.1807C133.302 16.1807 134.42 16.5246 135.37 17.1687C135.898 17.6238 136.312 18.1984 136.579 18.8457C136.845 19.4929 136.957 20.1946 136.904 20.8937L136.888 26.9317ZM125.541 26.9317H121.927V21.2508C121.967 20.7837 121.878 20.3148 121.67 19.8955C121.577 19.7715 121.455 19.6725 121.315 19.6074C121.175 19.5423 121.021 19.5131 120.867 19.5222C120.707 19.5057 120.545 19.5272 120.395 19.585C120.244 19.6427 120.109 19.7351 120 19.8549C119.784 20.2858 119.695 20.7702 119.743 21.2508V40.1438C119.694 40.6184 119.79 41.0967 120.016 41.5154C120.12 41.6382 120.252 41.7346 120.4 41.7966C120.547 41.8587 120.708 41.8846 120.867 41.8724C121.017 41.8818 121.168 41.8568 121.307 41.7991C121.446 41.7415 121.57 41.6528 121.67 41.5397C121.885 41.1084 121.974 40.6243 121.927 40.1438V34.1058H125.541V40.5171C125.599 41.2137 125.493 41.9141 125.232 42.5614C124.971 43.2087 124.562 43.7846 124.039 44.2422C123.109 44.927 121.977 45.2731 120.827 45.2242C119.676 45.281 118.542 44.9341 117.615 44.2422C117.09 43.7854 116.679 43.2101 116.416 42.5629C116.152 41.9157 116.043 41.2149 116.097 40.5171V20.8937C116.045 20.1977 116.153 19.4988 116.414 18.8524C116.674 18.2059 117.08 17.6295 117.599 17.1687C118.549 16.5246 119.667 16.1807 120.811 16.1807C121.955 16.1807 123.073 16.5246 124.023 17.1687C124.551 17.6238 124.965 18.1984 125.231 18.8457C125.498 19.4929 125.61 20.1946 125.557 20.8937L125.541 26.9317ZM114.836 44.6967H106.726V16.7385H114.756V20.3824H110.339V27.5322H114.604V31.1842H110.339V41.0447H114.836V44.6967ZM98.8878 20.074V30.6243H99.2974C99.7354 30.6485 100.173 30.5678 100.574 30.3889C100.745 30.2838 100.884 30.1341 100.978 29.9555C101.071 29.7769 101.115 29.5761 101.104 29.3745V22.7359C101.104 21.5348 100.928 20.7639 100.558 20.423C100.054 20.1244 99.4674 20.0018 98.8878 20.074ZM98.8878 44.6967H95.2821V16.7385H99.0645C101.061 16.7385 102.502 17.1687 103.385 18.0289C104.276 18.8973 104.718 20.2769 104.718 22.1922V28.2302C104.718 30.3943 104.231 31.9092 103.256 32.7749C102.362 33.5648 100.906 33.9571 98.8878 33.9517V44.6967ZM89.5162 44.6967H85.9266V16.7385H94.1177V20.3824H89.5162V44.6967ZM78.0727 21.2508V40.1438C78.0241 40.6184 78.1193 41.0967 78.3458 41.5154C78.5719 41.7365 78.8743 41.8601 79.189 41.8601C79.5036 41.8601 79.806 41.7365 80.0322 41.5154C80.2434 41.083 80.3296 40.5992 80.2811 40.1195V21.2508C80.3221 20.7845 80.236 20.3158 80.0322 19.8955C79.9384 19.772 79.8163 19.6735 79.6763 19.6084C79.5364 19.5434 79.3829 19.5138 79.2291 19.5222C79.0678 19.5069 78.9051 19.5289 78.7535 19.5866C78.6018 19.6442 78.4652 19.736 78.3538 19.8549C78.1303 20.2836 78.0328 20.7679 78.0727 21.2508ZM74.459 40.5171V20.8937C74.4056 20.1983 74.5127 19.4999 74.7719 18.8535C75.0311 18.2071 75.4353 17.6303 75.9527 17.1687C76.9027 16.5246 78.0209 16.1807 79.1649 16.1807C80.3089 16.1807 81.427 16.5246 82.3771 17.1687C82.9062 17.6226 83.3212 18.1969 83.5879 18.8445C83.8545 19.4921 83.9652 20.1944 83.9109 20.8937V40.5171C83.9704 41.2139 83.8653 41.9149 83.6042 42.5625C83.3431 43.2102 82.9335 43.7858 82.4092 44.2422C81.4796 44.9281 80.3469 45.2744 79.197 45.2242C78.0623 45.2717 76.9457 44.9252 76.033 44.2422C75.4965 43.7924 75.0739 43.2199 74.8002 42.5721C74.5264 41.9242 74.4095 41.2198 74.459 40.5171ZM66.7256 20.074V30.6243H67.1271C67.5677 30.6473 68.0075 30.5668 68.412 30.3889C68.58 30.2815 68.7168 30.1311 68.8085 29.9529C68.9002 29.7747 68.9435 29.5751 68.934 29.3745V22.7359C68.934 21.5348 68.7573 20.7639 68.3879 20.423C67.8869 20.125 67.3026 20.0024 66.7256 20.074ZM66.7256 44.6967H63.1119V16.7385H66.8942C68.8938 16.7385 70.3313 17.1687 71.2227 18.0289C72.1141 18.8892 72.5477 20.2769 72.5477 22.1922V28.2302C72.5477 30.3943 72.0605 31.9092 71.0862 32.7749C70.1921 33.5648 68.7386 33.9571 66.7256 33.9517V44.6967ZM55.4829 44.6967H51.8691V16.7385H61.1042V44.6967H57.4905V20.35H55.4748L55.4829 44.6967Z" fill="#636258"/>
<path d="M0 22.6222L38.0406 9.85645L47.5728 11.1874L9.29934 24.0019L0 22.6222Z" fill="#1D262F"/>
<path d="M0 22.622V13.6056L38.0646 0.839844V9.84812L0 22.622Z" fill="#C7A96F"/>
<path d="M38.0327 0.847656L47.573 1.85399V11.1869L38.0407 9.85593L38.0327 0.847656Z" fill="#BCBCB7"/>
<path d="M38.0166 15.2773L47.4284 16.6489V68.5317H38.0246L38.0166 15.2773Z" fill="url(#paint3_linear_13_13385)"/>
<path d="M200 50.4017V68.5075H197.744V55.3847L197.816 53.0474H197.712L195.728 68.467H191.785V50.4017H194.05V62.713L193.969 65.8619H194.066L196.001 50.4423L200 50.4017ZM182.847 50.4017V68.5075H180.59V55.3847L180.663 53.0474H180.566L178.583 68.467H174.632V50.4017H176.896V62.713L176.824 65.8619H176.921L178.848 50.4423L182.847 50.4017ZM162.931 68.5075H160.273V50.4017H166.328V52.7634H162.931V68.5075ZM147.111 53.3233V65.5616C147.081 65.8707 147.151 66.1815 147.312 66.4462C147.395 66.5282 147.495 66.591 147.605 66.6302C147.714 66.6695 147.831 66.6842 147.946 66.6734C148.057 66.6872 148.169 66.6778 148.275 66.6456C148.381 66.6135 148.48 66.5594 148.565 66.4868C148.725 66.216 148.793 65.8995 148.758 65.5859V53.3233C148.786 53.0179 148.719 52.7111 148.565 52.4468C148.489 52.3605 148.395 52.2934 148.289 52.2511C148.182 52.2088 148.068 52.1924 147.954 52.2034C147.838 52.1904 147.72 52.2032 147.609 52.2411C147.498 52.2789 147.397 52.3408 147.312 52.4225C147.149 52.6923 147.078 53.0089 147.111 53.3233ZM144.453 65.7888V53.0961C144.416 52.6292 144.498 52.1605 144.691 51.7344C144.883 51.3084 145.18 50.939 145.553 50.6614C146.272 50.2465 147.086 50.0283 147.914 50.0283C148.742 50.0283 149.556 50.2465 150.275 50.6614C150.657 50.9326 150.963 51.2998 151.161 51.7268C151.36 52.1538 151.445 52.6258 151.408 53.0961V65.7888C151.447 66.256 151.366 66.7255 151.173 67.152C150.981 67.5784 150.682 67.9475 150.307 68.2235C149.588 68.6795 148.747 68.9005 147.898 68.8565C147.076 68.8917 146.263 68.6707 145.569 68.2235C145.192 67.9488 144.891 67.5805 144.696 67.154C144.5 66.7276 144.417 66.2574 144.453 65.7888ZM131.444 52.8039V65.026C131.444 67.5634 130.298 68.8322 128.007 68.8322V66.1703C128.222 66.183 128.435 66.1199 128.609 65.9917C128.849 65.6721 128.956 65.27 128.906 64.8718V50.4017H135.587V68.4751H132.929V52.7634L131.444 52.8039ZM116.073 53.3639V65.6022C116.043 65.9113 116.113 66.222 116.274 66.4868C116.451 66.6283 116.671 66.7053 116.896 66.7053C117.122 66.7053 117.342 66.6283 117.519 66.4868C117.679 66.216 117.747 65.8995 117.712 65.5859V53.3233C117.741 53.0179 117.673 52.7111 117.519 52.4468C117.443 52.361 117.348 52.2943 117.242 52.252C117.136 52.2097 117.022 52.1931 116.909 52.2034C116.792 52.1904 116.674 52.2032 116.563 52.2411C116.452 52.2789 116.351 52.3408 116.266 52.4225C116.106 52.6932 116.038 53.0098 116.073 53.3233V53.3639ZM113.415 65.8294V53.0961C113.378 52.6292 113.46 52.1605 113.653 51.7344C113.845 51.3084 114.142 50.939 114.515 50.6614C115.235 50.2465 116.048 50.0283 116.876 50.0283C117.704 50.0283 118.518 50.2465 119.237 50.6614C119.619 50.9326 119.925 51.2998 120.123 51.7268C120.322 52.1538 120.407 52.6258 120.37 53.0961V65.7888C120.409 66.256 120.328 66.7255 120.135 67.152C119.943 67.5784 119.645 67.9475 119.269 68.2235C118.549 68.6786 117.709 68.8995 116.86 68.8565C116.035 68.8933 115.219 68.6723 114.523 68.2235C114.148 67.9473 113.849 67.5785 113.655 67.1523C113.461 66.726 113.378 66.2566 113.415 65.7888V65.8294ZM100.382 68.5075H97.7156V50.4017H100.382V57.3324H101.867V50.4017H104.525V68.5075H101.867V59.694H100.382V68.5075ZM83.7104 68.5075H81.2209L83.5176 59.3126L81.4859 50.3855H84.2484C84.6499 52.3062 84.9444 53.7778 85.1318 54.8004C85.3084 55.8229 85.4369 56.7238 85.5012 57.4947C85.5819 56.3394 85.7756 55.1949 86.0794 54.0781C86.3363 53.1691 86.521 52.4955 86.6335 52.0573L87.0591 50.3855H89.5485L87.3883 58.639L89.5967 68.4913H86.8423L85.8866 64.1008C85.7742 63.5246 85.6457 62.7536 85.4931 61.796C85.4931 61.4876 85.4048 61.0737 85.3325 60.5462C85.3096 61.84 85.1316 63.1262 84.8025 64.3767C84.4224 65.8159 84.0664 67.1928 83.7344 68.5075H83.7104ZM73.5919 68.5075H67.6333V50.4017H73.5598V52.7634H70.2994V57.4136H73.4393V59.7752H70.2994V66.1459H73.616L73.5919 68.5075ZM51.8613 50.4017H59.1771V52.7634H56.8643V68.5075H54.1982V52.7634H51.8613V50.4017Z" fill="#C8AA6F"/>
<path d="M200 44.6967H191.929V16.7385H199.96V20.3824H195.527V27.5322H199.96V31.1842H195.471V41.0447H199.976L200 44.6967ZM178.358 41.3287C178.916 41.3919 179.48 41.2694 179.964 40.9797C180.349 40.6389 180.542 39.8598 180.542 38.6506V32.0364C180.494 31.3817 180.226 31.0084 179.739 30.9164C179.263 30.8207 178.779 30.7745 178.294 30.7785L178.358 41.3287ZM189.777 44.6642H186.163V16.7385H189.777V44.6642ZM178.358 16.7385V27.443C180.408 27.443 181.862 27.8217 182.718 28.5791C183.698 29.4448 184.188 30.9786 184.188 33.1807V39.2349C184.188 41.1177 183.738 42.5 182.839 43.3819C181.939 44.2638 180.502 44.7021 178.526 44.6967H174.744V16.7385H178.358ZM167.115 44.6967H163.501V16.7385H167.115V27.443H169.123V16.7385H172.736V44.6967H169.123V31.0869H167.115V44.6967ZM155.664 31.6387V41.3287H156.378C156.594 41.3521 156.813 41.3215 157.015 41.2394C157.216 41.1573 157.395 41.0263 157.535 40.858C157.815 40.3285 157.935 39.7273 157.88 39.1294V33.838C157.935 33.2401 157.815 32.6389 157.535 32.1094C157.395 31.9411 157.216 31.8101 157.015 31.728C156.813 31.646 156.594 31.6153 156.378 31.6387H155.664ZM155.664 19.9117V28.3438H156.467C156.658 28.3638 156.851 28.3332 157.027 28.2549C157.203 28.1766 157.356 28.0535 157.47 27.8974C157.703 27.3906 157.803 26.8315 157.76 26.2743V21.9893C157.803 21.4338 157.709 20.876 157.486 20.3662C157.367 20.2124 157.211 20.0922 157.032 20.0169C156.853 19.9416 156.659 19.9137 156.467 19.9361L155.664 19.9117ZM152.05 44.6967V16.7385H157.165C157.759 16.6956 158.354 16.7936 158.904 17.0247C159.453 17.2558 159.941 17.6136 160.329 18.0695C161.099 19.1351 161.482 20.4364 161.413 21.754V26.1851C161.448 26.6491 161.387 27.1153 161.233 27.554C161.08 27.9928 160.838 28.3944 160.522 28.7333C159.808 29.3144 158.969 29.7176 158.073 29.9101C159.019 30.0781 159.899 30.5143 160.61 31.168C161.271 32.0902 161.576 33.2241 161.47 34.3574V38.7966C161.548 40.2701 161.19 41.7337 160.442 43.0005C160.08 43.5532 159.581 44.0006 158.995 44.2982C158.409 44.5957 157.756 44.7331 157.101 44.6967H152.05ZM150.042 16.7385V44.6967H146.958V24.4077L147.063 20.7882H146.958L144.26 44.6723H138.928V16.7385H141.996V35.7452L141.891 40.6145H142.028L144.646 16.7385H150.042ZM136.888 26.9317H133.307V21.2508C133.346 20.7837 133.257 20.3148 133.05 19.8955C132.956 19.7715 132.834 19.6725 132.694 19.6074C132.554 19.5423 132.4 19.5131 132.247 19.5222C132.086 19.5057 131.925 19.5272 131.774 19.585C131.623 19.6427 131.488 19.7351 131.379 19.8549C131.163 20.2858 131.074 20.7702 131.122 21.2508V40.1438C131.074 40.6184 131.169 41.0967 131.395 41.5154C131.5 41.6382 131.631 41.7346 131.779 41.7966C131.927 41.8586 132.087 41.8846 132.247 41.8724C132.397 41.8818 132.547 41.8568 132.686 41.7991C132.825 41.7415 132.949 41.6528 133.05 41.5397C133.264 41.1084 133.354 40.6243 133.307 40.1438V34.1058H136.92V40.5171C136.98 41.2139 136.875 41.9149 136.614 42.5625C136.353 43.2102 135.943 43.7858 135.419 44.2422C134.488 44.927 133.356 45.2731 132.206 45.2242C131.069 45.2716 129.95 44.9252 129.034 44.2422C128.497 43.7928 128.072 43.2208 127.795 42.5732C127.519 41.9256 127.399 41.2209 127.444 40.5171V20.8937C127.392 20.1977 127.5 19.4988 127.761 18.8524C128.021 18.2059 128.427 17.6295 128.946 17.1687C129.896 16.5246 131.014 16.1807 132.158 16.1807C133.302 16.1807 134.42 16.5246 135.37 17.1687C135.898 17.6238 136.312 18.1984 136.579 18.8457C136.845 19.4929 136.957 20.1946 136.904 20.8937L136.888 26.9317ZM125.541 26.9317H121.927V21.2508C121.967 20.7837 121.878 20.3148 121.67 19.8955C121.577 19.7715 121.455 19.6725 121.315 19.6074C121.175 19.5423 121.021 19.5131 120.867 19.5222C120.707 19.5057 120.545 19.5272 120.395 19.585C120.244 19.6427 120.109 19.7351 120 19.8549C119.784 20.2858 119.695 20.7702 119.743 21.2508V40.1438C119.694 40.6184 119.79 41.0967 120.016 41.5154C120.12 41.6382 120.252 41.7346 120.4 41.7966C120.547 41.8586 120.708 41.8846 120.867 41.8724C121.017 41.8818 121.168 41.8568 121.307 41.7991C121.446 41.7415 121.57 41.6528 121.67 41.5397C121.885 41.1084 121.974 40.6243 121.927 40.1438V34.1058H125.541V40.5171C125.599 41.2137 125.493 41.9141 125.232 42.5614C124.971 43.2087 124.562 43.7846 124.039 44.2422C123.109 44.927 121.977 45.2731 120.827 45.2242C119.676 45.281 118.542 44.9341 117.615 44.2422C117.09 43.7854 116.679 43.2101 116.416 42.5629C116.152 41.9157 116.043 41.2149 116.097 40.5171V20.8937C116.045 20.1977 116.153 19.4988 116.414 18.8524C116.674 18.2059 117.08 17.6295 117.599 17.1687C118.549 16.5246 119.667 16.1807 120.811 16.1807C121.955 16.1807 123.073 16.5246 124.023 17.1687C124.551 17.6238 124.965 18.1984 125.231 18.8457C125.498 19.4929 125.61 20.1946 125.557 20.8937L125.541 26.9317ZM114.836 44.6967H106.726V16.7385H114.756V20.3824H110.339V27.5322H114.604V31.1842H110.339V41.0447H114.836V44.6967ZM98.8878 20.074V30.6243H99.2974C99.7354 30.6485 100.173 30.5678 100.574 30.3889C100.745 30.2838 100.884 30.1341 100.978 29.9555C101.071 29.7769 101.115 29.5761 101.104 29.3745V22.7359C101.104 21.5348 100.928 20.7639 100.558 20.423C100.054 20.1244 99.4674 20.0018 98.8878 20.074ZM98.8878 44.6967H95.2821V16.7385H99.0645C101.061 16.7385 102.502 17.1687 103.385 18.0289C104.276 18.8973 104.718 20.2769 104.718 22.1922V28.2302C104.718 30.3943 104.231 31.9092 103.256 32.7749C102.362 33.5648 100.906 33.9571 98.8878 33.9517V44.6967ZM89.5162 44.6967H85.9266V16.7385H94.1177V20.3824H89.5162V44.6967ZM78.0727 21.2508V40.1438C78.0241 40.6184 78.1193 41.0967 78.3458 41.5154C78.5719 41.7365 78.8743 41.8601 79.189 41.8601C79.5036 41.8601 79.806 41.7365 80.0322 41.5154C80.2434 41.083 80.3296 40.5992 80.2811 40.1195V21.2508C80.3221 20.7845 80.236 20.3158 80.0322 19.8955C79.9384 19.772 79.8163 19.6735 79.6763 19.6084C79.5364 19.5434 79.3829 19.5138 79.2291 19.5222C79.0678 19.5069 78.9051 19.5289 78.7535 19.5866C78.6018 19.6442 78.4652 19.736 78.3538 19.8549C78.1303 20.2836 78.0328 20.7679 78.0727 21.2508ZM74.459 40.5171V20.8937C74.4056 20.1983 74.5127 19.4999 74.7719 18.8535C75.0311 18.2071 75.4353 17.6303 75.9527 17.1687C76.9027 16.5246 78.0209 16.1807 79.1649 16.1807C80.3089 16.1807 81.427 16.5246 82.3771 17.1687C82.9062 17.6226 83.3212 18.1969 83.5879 18.8445C83.8545 19.4921 83.9652 20.1944 83.9109 20.8937V40.5171C83.9704 41.2139 83.8653 41.9149 83.6042 42.5625C83.3431 43.2102 82.9335 43.7858 82.4092 44.2422C81.4796 44.9281 80.3469 45.2744 79.197 45.2242C78.0623 45.2717 76.9457 44.9252 76.033 44.2422C75.4965 43.7924 75.0739 43.2199 74.8002 42.572C74.5264 41.9242 74.4095 41.2198 74.459 40.5171ZM66.7256 20.074V30.6243H67.1271C67.5677 30.6473 68.0075 30.5668 68.412 30.3889C68.58 30.2815 68.7168 30.1311 68.8085 29.9529C68.9002 29.7747 68.9435 29.5751 68.934 29.3745V22.7359C68.934 21.5348 68.7573 20.7639 68.3879 20.423C67.8869 20.125 67.3026 20.0024 66.7256 20.074ZM66.7256 44.6967H63.1119V16.7385H66.8942C68.8938 16.7385 70.3313 17.1687 71.2227 18.0289C72.1141 18.8892 72.5477 20.2769 72.5477 22.1922V28.2302C72.5477 30.3943 72.0605 31.9092 71.0862 32.7749C70.1921 33.5648 68.7386 33.9571 66.7256 33.9517V44.6967ZM55.4829 44.6967H51.8691V16.7385H61.1042V44.6967H57.4905V20.35H55.4748L55.4829 44.6967Z" fill="white"/>
</g>
<defs>
<linearGradient id="paint0_linear_13_13385" x1="13.6518" y1="27.2153" x2="23.4824" y2="68.1523" gradientUnits="userSpaceOnUse">
<stop offset="0.223958" stop-color="#636258"/>
<stop offset="0.671275" stop-color="#AFAFAB"/>
<stop offset="1" stop-color="white" stop-opacity="0"/>
</linearGradient>
<linearGradient id="paint1_linear_13_13385" x1="14.4949" y1="33.6592" x2="14.4949" y2="68.5317" gradientUnits="userSpaceOnUse">
<stop stop-color="#BABAB5"/>
<stop offset="1" stop-color="white" stop-opacity="0"/>
</linearGradient>
<linearGradient id="paint2_linear_13_13385" x1="23.9111" y1="31.5166" x2="23.9111" y2="68.5317" gradientUnits="userSpaceOnUse">
<stop stop-color="#BDA872"/>
<stop offset="1" stop-color="#BDA872"/>
</linearGradient>
<linearGradient id="paint3_linear_13_13385" x1="42.7225" y1="15.2773" x2="42.7225" y2="68.5317" gradientUnits="userSpaceOnUse">
<stop stop-color="#BFBFBB"/>
<stop offset="0.515625" stop-color="#BABAB5"/>
<stop offset="1" stop-color="#BABAB5"/>
</linearGradient>
<clipPath id="clip0_13_13385">
<rect width="200" height="68" fill="white" transform="translate(0 0.839844)"/>
</clipPath>
</defs>
</svg>
