<svg width="16" height="17" viewBox="0 0 16 17" fill="none" xmlns="http://www.w3.org/2000/svg">
<g clip-path="url(#clip0_13_13433)">
<path d="M8 0.839844C4.691 0.839844 2 3.53084 2 6.83984C2 10.9988 7.416 16.4628 7.646 16.6938C7.744 16.7908 7.872 16.8398 8 16.8398C8.128 16.8398 8.256 16.7908 8.354 16.6938C8.584 16.4628 14 10.9988 14 6.83984C14 3.53084 11.309 0.839844 8 0.839844ZM8 15.6168C6.806 14.3388 3 10.0168 3 6.83984C3 4.08284 5.243 1.83984 8 1.83984C10.757 1.83984 13 4.08284 13 6.83984C13 10.0138 9.194 14.3388 8 15.6168Z" fill="#BFA372"/>
<path d="M8 3.83984C6.346 3.83984 5 5.18584 5 6.83984C5 8.49384 6.346 9.83984 8 9.83984C9.654 9.83984 11 8.49384 11 6.83984C11 5.18584 9.654 3.83984 8 3.83984ZM8 8.83984C6.897 8.83984 6 7.94284 6 6.83984C6 5.73684 6.897 4.83984 8 4.83984C9.103 4.83984 10 5.73684 10 6.83984C10 7.94284 9.103 8.83984 8 8.83984Z" fill="#BFA372"/>
</g>
<defs>
<clipPath id="clip0_13_13433">
<rect width="16" height="16" fill="white" transform="translate(0 0.839844)"/>
</clipPath>
</defs>
</svg>
