<svg width="35" height="48" viewBox="0 0 35 48" fill="none" xmlns="http://www.w3.org/2000/svg">
<path d="M0 15.3754L26.8522 6.36426L33.5808 7.30375L6.56424 16.3493L0 15.3754Z" fill="#1D262F"/>
<path d="M0 15.3756V9.01114L26.8692 0V6.35878L0 15.3756Z" fill="#C7A96F"/>
<path d="M26.8467 0.00585938L33.581 0.71621V7.30414L26.8523 6.36464L26.8467 0.00585938Z" fill="#BCBCB7"/>
<path d="M20.1976 47.7827L20.2033 18.7099L6.91608 23.161L6.91041 47.7827H0.244141V19.1223L26.8412 10.1914V47.7827H20.1976Z" fill="url(#paint0_linear_391_7573)"/>
<path d="M18.5197 19.2772L6.91608 23.1612L6.91041 47.7829H0.244141V19.1225L18.5197 12.9814V19.2772Z" fill="#636258"/>
<path d="M6.91016 23.167L13.5538 24.1294V47.7829H6.91582L6.91016 23.167Z" fill="url(#paint1_linear_391_7573)"/>
<path d="M13.5539 24.1464L6.91602 23.1611L20.2032 18.71V21.6545L13.5539 24.1464Z" fill="#1D262F"/>
<path d="M20.203 21.6543L20.1973 47.7826H13.5537V24.1291L20.203 21.6543Z" fill="url(#paint2_linear_391_7573)"/>
<path d="M26.835 10.1914L33.4786 11.1595V47.7827H26.8406L26.835 10.1914Z" fill="#BCBCB7"/>
<path d="M0 15.3754L26.8522 6.36426L33.5808 7.30375L6.56424 16.3493L0 15.3754Z" fill="#1D262F"/>
<path d="M0 15.3756V9.01114L26.8692 0V6.35878L0 15.3756Z" fill="#C7A96F"/>
<path d="M26.8467 0.00585938L33.581 0.71621V7.30414L26.8523 6.36464L26.8467 0.00585938Z" fill="#BCBCB7"/>
<path d="M26.835 10.1914L33.4786 11.1595V47.7827H26.8406L26.835 10.1914Z" fill="url(#paint3_linear_391_7573)"/>
<defs>
<linearGradient id="paint0_linear_391_7573" x1="9.63701" y1="18.6182" x2="16.5763" y2="47.5149" gradientUnits="userSpaceOnUse">
<stop offset="0.223958" stop-color="#636258"/>
<stop offset="0.671275" stop-color="#AFAFAB"/>
<stop offset="1" stop-color="white" stop-opacity="0"/>
</linearGradient>
<linearGradient id="paint1_linear_391_7573" x1="10.232" y1="23.167" x2="10.232" y2="47.7829" gradientUnits="userSpaceOnUse">
<stop stop-color="#BABAB5"/>
<stop offset="1" stop-color="white" stop-opacity="0"/>
</linearGradient>
<linearGradient id="paint2_linear_391_7573" x1="16.8783" y1="21.6543" x2="16.8783" y2="47.7826" gradientUnits="userSpaceOnUse">
<stop stop-color="#BDA872"/>
<stop offset="1" stop-color="#BDA872"/>
</linearGradient>
<linearGradient id="paint3_linear_391_7573" x1="30.1568" y1="10.1914" x2="30.1568" y2="47.7827" gradientUnits="userSpaceOnUse">
<stop stop-color="#BFBFBB"/>
<stop offset="0.515625" stop-color="#BABAB5"/>
<stop offset="1" stop-color="#BABAB5"/>
</linearGradient>
</defs>
</svg>
