<svg width="212" height="72" viewBox="0 0 212 72" fill="none" xmlns="http://www.w3.org/2000/svg">
<g clip-path="url(#clip0_13_4279)">
<path d="M0 23.0636L40.2782 9.54688L50.3712 10.9561L9.84636 24.5244L0 23.0636Z" fill="#1D262F"/>
<path d="M0 23.0635V13.5167L40.3037 0V9.53817L0 23.0635Z" fill="#C7A96F"/>
<path d="M40.2695 0.00878906L50.371 1.07431V10.9562L40.278 9.54696L40.2695 0.00878906Z" fill="#BCBCB7"/>
<path d="M30.2959 71.674L30.3044 28.0648L10.3736 34.7415L10.3651 71.674H0.365723V28.6835L40.2613 15.2871V71.674H30.2959Z" fill="url(#paint0_linear_13_4279)"/>
<path d="M27.7791 28.9153L10.3736 34.7413L10.3651 71.6738H0.365723V28.6833L27.7791 19.4717V28.9153Z" fill="#636258"/>
<path d="M10.3652 34.75L20.3306 36.1936V71.6739H10.3737L10.3652 34.75Z" fill="url(#paint1_linear_13_4279)"/>
<path d="M20.3304 36.2192L10.3735 34.7412L30.3043 28.0645V32.4812L20.3304 36.2192Z" fill="#1D262F"/>
<path d="M30.3045 32.4814L30.296 71.6739H20.3306V36.1936L30.3045 32.4814Z" fill="url(#paint2_linear_13_4279)"/>
<path d="M40.2529 15.2871L50.2183 16.7393V71.674H40.2614L40.2529 15.2871Z" fill="#BCBCB7"/>
<path d="M211.765 52.4774V71.6483H209.375V57.7535L209.452 55.2787H209.341L207.241 71.6053H203.066V52.4774H205.464V65.5129L205.379 68.847H205.481L207.53 52.5204L211.765 52.4774ZM193.602 52.4774V71.6483H191.213V57.7535L191.29 55.2787H191.188L189.087 71.6053H184.904V52.4774H187.302V65.5129L187.225 68.847H187.327L189.368 52.5204L193.602 52.4774ZM172.515 71.6483H169.701V52.4774H176.112V54.9779H172.515V71.6483ZM155.765 55.5709V68.529C155.732 68.8563 155.807 69.1854 155.977 69.4657C156.065 69.5525 156.171 69.619 156.287 69.6605C156.403 69.7021 156.526 69.7177 156.649 69.7063C156.766 69.7209 156.884 69.7109 156.997 69.6768C157.109 69.6428 157.214 69.5855 157.304 69.5086C157.473 69.222 157.545 68.8868 157.508 68.5548V55.5709C157.538 55.2475 157.467 54.9226 157.304 54.6428C157.224 54.5514 157.123 54.4804 157.011 54.4356C156.899 54.3907 156.778 54.3734 156.657 54.385C156.534 54.3712 156.409 54.3849 156.292 54.4249C156.174 54.465 156.067 54.5306 155.977 54.617C155.804 54.9027 155.73 55.2379 155.765 55.5709ZM152.95 68.7696V55.3303C152.911 54.8359 152.998 54.3396 153.201 53.8885C153.405 53.4374 153.72 53.0463 154.115 52.7524C154.876 52.3131 155.738 52.082 156.615 52.082C157.492 52.082 158.353 52.3131 159.115 52.7524C159.519 53.0395 159.843 53.4283 160.053 53.8804C160.263 54.3325 160.353 54.8323 160.314 55.3303V68.7696C160.355 69.2643 160.27 69.7614 160.066 70.213C159.862 70.6645 159.546 71.0553 159.149 71.3475C158.387 71.8304 157.496 72.0644 156.598 72.0178C155.727 72.055 154.867 71.821 154.132 71.3475C153.732 71.0567 153.414 70.6667 153.207 70.2151C153 69.7636 152.911 69.2657 152.95 68.7696ZM139.175 55.0209V67.9619C139.175 70.6486 137.962 71.992 135.536 71.992V69.1735C135.764 69.1869 135.989 69.1201 136.174 68.9845C136.428 68.646 136.541 68.2203 136.488 67.7986V52.4774H143.563V71.6139H140.748V54.9779L139.175 55.0209ZM122.901 55.6138V68.572C122.868 68.8993 122.943 69.2283 123.113 69.5086C123.301 69.6585 123.533 69.74 123.772 69.74C124.012 69.74 124.244 69.6585 124.431 69.5086C124.601 69.222 124.673 68.8868 124.635 68.5548V55.5709C124.666 55.2475 124.595 54.9226 124.431 54.6428C124.351 54.5519 124.251 54.4813 124.138 54.4365C124.026 54.3918 123.905 54.3741 123.785 54.385C123.662 54.3712 123.537 54.3849 123.42 54.4249C123.302 54.465 123.195 54.5306 123.105 54.617C122.935 54.9037 122.863 55.2389 122.901 55.5709V55.6138ZM120.086 68.8126V55.3303C120.047 54.8359 120.134 54.3396 120.338 53.8885C120.542 53.4374 120.856 53.0463 121.251 52.7524C122.013 52.3131 122.874 52.082 123.751 52.082C124.628 52.082 125.49 52.3131 126.251 52.7524C126.656 53.0395 126.979 53.4283 127.189 53.8804C127.399 54.3325 127.489 54.8323 127.45 55.3303V68.7696C127.491 69.2643 127.406 69.7614 127.202 70.213C126.998 70.6645 126.682 71.0553 126.285 71.3475C125.523 71.8293 124.632 72.0633 123.734 72.0178C122.861 72.0568 121.997 71.8227 121.26 71.3475C120.862 71.0551 120.546 70.6646 120.34 70.2133C120.135 69.7619 120.047 69.2649 120.086 68.7696V68.8126ZM106.286 71.6483H103.463V52.4774H106.286V59.8158H107.859V52.4774H110.674V71.6483H107.859V62.3163H106.286V71.6483ZM88.6341 71.6483H85.9982L88.43 61.9125L86.2788 52.4602H89.2038C89.629 54.4939 89.9407 56.0521 90.1391 57.1348C90.3262 58.2175 90.4622 59.1713 90.5303 59.9876C90.6157 58.7643 90.8208 57.5525 91.1425 56.37C91.4146 55.4076 91.6101 54.6944 91.7292 54.2304L92.1798 52.4602H94.8157L92.5284 61.1993L94.8667 71.6311H91.9502L90.9384 66.9823C90.8194 66.3722 90.6833 65.5559 90.5218 64.5419C90.5218 64.2154 90.4282 63.7771 90.3517 63.2186C90.3274 64.5885 90.139 65.9504 89.7905 67.2745C89.388 68.7983 89.0111 70.2562 88.6596 71.6483H88.6341ZM77.9205 71.6483H71.6113V52.4774H77.8865V54.9779H74.4343V59.9017H77.7589V62.4023H74.4343V69.1477H77.946L77.9205 71.6483ZM54.9116 52.4774H62.6578V54.9779H60.2089V71.6483H57.386V54.9779H54.9116V52.4774Z" fill="#C8AA6F"/>
<path d="M211.765 46.4366H203.219V16.8339H211.722V20.6921H207.029V28.2625H211.722V32.1293H206.969V42.5697H211.739L211.765 46.4366ZM188.85 42.8705C189.441 42.9374 190.038 42.8077 190.55 42.501C190.958 42.1401 191.162 41.3152 191.162 40.0348V33.0316C191.111 32.3384 190.828 31.9431 190.312 31.8457C189.808 31.7444 189.295 31.6955 188.782 31.6997L188.85 42.8705ZM200.941 46.4022H197.114V16.8339H200.941V46.4022ZM188.85 16.8339V28.168C191.021 28.168 192.56 28.569 193.467 29.371C194.504 30.2876 195.023 31.9116 195.023 34.2432V40.6535C195.023 42.6471 194.547 44.1107 193.594 45.0445C192.642 45.9783 191.12 46.4423 189.028 46.4366H185.023V16.8339H188.85ZM176.946 46.4366H173.119V16.8339H176.946V28.168H179.071V16.8339H182.898V46.4366H179.071V32.0262H176.946V46.4366ZM164.82 32.6105V42.8705H165.577C165.806 42.8953 166.037 42.8628 166.251 42.7759C166.465 42.689 166.654 42.5503 166.802 42.3721C167.099 41.8115 167.226 41.1749 167.167 40.5418V34.9392C167.226 34.3061 167.099 33.6695 166.802 33.1089C166.654 32.9307 166.465 32.792 166.251 32.7051C166.037 32.6182 165.806 32.5857 165.577 32.6105H164.82ZM164.82 20.1937V29.1218H165.671C165.873 29.1429 166.078 29.1105 166.264 29.0276C166.45 28.9448 166.612 28.8144 166.734 28.6492C166.98 28.1125 167.086 27.5205 167.04 26.9306V22.3935C167.086 21.8053 166.986 21.2147 166.751 20.6749C166.624 20.5121 166.458 20.3847 166.269 20.305C166.08 20.2253 165.874 20.1958 165.671 20.2195L164.82 20.1937ZM160.994 46.4366V16.8339H166.41C167.039 16.7884 167.669 16.8921 168.251 17.1368C168.833 17.3815 169.35 17.7604 169.761 18.2431C170.576 19.3714 170.981 20.7492 170.908 22.1443V26.836C170.945 27.3274 170.88 27.821 170.718 28.2855C170.555 28.7501 170.299 29.1753 169.965 29.5342C169.209 30.1495 168.321 30.5764 167.371 30.7802C168.374 30.9581 169.305 31.42 170.058 32.1121C170.758 33.0886 171.081 34.2891 170.968 35.4892V40.1895C171.051 41.7496 170.672 43.2993 169.88 44.6406C169.496 45.2259 168.968 45.6996 168.348 46.0146C167.727 46.3297 167.036 46.4752 166.342 46.4366H160.994ZM158.868 16.8339V46.4366H155.603V24.9542L155.714 21.1217H155.603L152.746 46.4108H147.1V16.8339H150.348V36.9585L150.238 42.1143H150.382L153.154 16.8339H158.868ZM144.941 27.6266H141.148V21.6115C141.19 21.117 141.096 20.6205 140.876 20.1765C140.777 20.0452 140.648 19.9404 140.5 19.8715C140.352 19.8026 140.189 19.7716 140.026 19.7812C139.856 19.7638 139.685 19.7865 139.526 19.8477C139.366 19.9089 139.223 20.0067 139.108 20.1335C138.879 20.5898 138.784 21.1027 138.836 21.6115V41.6159C138.784 42.1184 138.885 42.6249 139.125 43.0681C139.235 43.1982 139.374 43.3002 139.531 43.3659C139.687 43.4316 139.857 43.4591 140.026 43.4462C140.185 43.4562 140.344 43.4296 140.491 43.3686C140.638 43.3076 140.77 43.2137 140.876 43.0939C141.104 42.6372 141.198 42.1247 141.148 41.6159V35.2228H144.975V42.0112C145.038 42.7489 144.926 43.4912 144.65 44.1769C144.373 44.8626 143.94 45.4722 143.385 45.9554C142.4 46.6804 141.201 47.0469 139.983 46.9951C138.779 47.0453 137.594 46.6785 136.625 45.9554C136.055 45.4795 135.606 44.8738 135.313 44.1882C135.02 43.5025 134.893 42.7564 134.941 42.0112V21.2334C134.886 20.4965 135 19.7565 135.276 19.072C135.552 18.3875 135.982 17.7772 136.531 17.2893C137.537 16.6073 138.721 16.2432 139.932 16.2432C141.144 16.2432 142.328 16.6073 143.334 17.2893C143.892 17.7712 144.33 18.3796 144.613 19.0649C144.895 19.7503 145.013 20.4933 144.958 21.2334L144.941 27.6266ZM132.926 27.6266H129.1V21.6115C129.141 21.117 129.047 20.6205 128.828 20.1765C128.729 20.0452 128.6 19.9404 128.451 19.8715C128.303 19.8026 128.14 19.7716 127.977 19.7812C127.808 19.7638 127.636 19.7865 127.477 19.8477C127.318 19.9089 127.174 20.0067 127.059 20.1335C126.83 20.5898 126.736 21.1027 126.787 21.6115V41.6159C126.735 42.1184 126.836 42.6249 127.076 43.0681C127.186 43.1982 127.325 43.3002 127.482 43.3659C127.639 43.4316 127.808 43.4591 127.977 43.4462C128.136 43.4562 128.295 43.4296 128.442 43.3686C128.59 43.3076 128.721 43.2137 128.828 43.0939C129.055 42.6372 129.149 42.1247 129.1 41.6159V35.2228H132.926V42.0112C132.987 42.7487 132.875 43.4903 132.598 44.1757C132.322 44.8611 131.89 45.4709 131.336 45.9554C130.351 46.6804 129.152 47.0469 127.935 46.9951C126.716 47.0553 125.515 46.688 124.534 45.9554C123.978 45.4717 123.543 44.8626 123.264 44.1773C122.985 43.4921 122.869 42.75 122.927 42.0112V21.2334C122.871 20.4965 122.986 19.7565 123.262 19.072C123.538 18.3875 123.967 17.7772 124.517 17.2893C125.523 16.6073 126.706 16.2432 127.918 16.2432C129.129 16.2432 130.313 16.6073 131.319 17.2893C131.878 17.7712 132.316 18.3796 132.598 19.0649C132.88 19.7503 132.998 20.4933 132.943 21.2334L132.926 27.6266ZM121.592 46.4366H113.004V16.8339H121.507V20.6921H116.83V28.2625H121.345V32.1293H116.83V42.5697H121.592V46.4366ZM104.705 20.3656V31.5364H105.139C105.602 31.562 106.066 31.4766 106.49 31.2872C106.671 31.1759 106.819 31.0174 106.918 30.8283C107.016 30.6392 107.063 30.4266 107.052 30.2131V23.184C107.052 21.9123 106.865 21.096 106.473 20.7351C105.94 20.4189 105.319 20.289 104.705 20.3656ZM104.705 46.4366H100.887V16.8339H104.892C107.006 16.8339 108.531 17.2893 109.467 18.2001C110.41 19.1196 110.878 20.5804 110.878 22.6083V29.0015C110.878 31.2929 110.362 32.8969 109.33 33.8135C108.384 34.6499 106.842 35.0652 104.705 35.0595V46.4366ZM94.782 46.4366H90.9812V16.8339H99.6542V20.6921H94.782V46.4366ZM82.6654 21.6115V41.6159C82.6139 42.1184 82.7147 42.6249 82.9545 43.0681C83.1939 43.3023 83.5141 43.4332 83.8473 43.4332C84.1805 43.4332 84.5006 43.3023 84.7401 43.0681C84.9637 42.6103 85.055 42.0981 85.0037 41.5901V21.6115C85.047 21.1178 84.9559 20.6216 84.7401 20.1765C84.6408 20.0458 84.5115 19.9414 84.3633 19.8725C84.2152 19.8037 84.0526 19.7723 83.8898 19.7812C83.719 19.7651 83.5468 19.7884 83.3862 19.8494C83.2256 19.9105 83.0809 20.0076 82.963 20.1335C82.7263 20.5874 82.6231 21.1003 82.6654 21.6115ZM78.8391 42.0112V21.2334C78.7825 20.4972 78.8959 19.7576 79.1704 19.0732C79.4448 18.3888 79.8728 17.7781 80.4206 17.2893C81.4265 16.6073 82.6105 16.2432 83.8218 16.2432C85.0331 16.2432 86.217 16.6073 87.2229 17.2893C87.7832 17.7699 88.2226 18.378 88.5049 19.0637C88.7873 19.7494 88.9045 20.493 88.847 21.2334V42.0112C88.91 42.7489 88.7987 43.4912 88.5222 44.1769C88.2458 44.8626 87.8121 45.4722 87.2569 45.9554C86.2727 46.6817 85.0734 47.0483 83.8558 46.9951C82.6543 47.0455 81.472 46.6785 80.5056 45.9554C79.9376 45.4791 79.4901 44.8729 79.2003 44.187C78.9105 43.501 78.7866 42.7552 78.8391 42.0112ZM70.6508 20.3656V31.5364H71.0759C71.5424 31.5608 72.0081 31.4755 72.4364 31.2872C72.6142 31.1735 72.7591 31.0142 72.8562 30.8255C72.9533 30.6368 72.9991 30.4255 72.9891 30.2131V23.184C72.9891 21.9123 72.802 21.096 72.4109 20.7351C71.8804 20.4196 71.2617 20.2897 70.6508 20.3656ZM70.6508 46.4366H66.8245V16.8339H70.8293C72.9466 16.8339 74.4686 17.2893 75.4124 18.2001C76.3562 19.111 76.8154 20.5804 76.8154 22.6083V29.0015C76.8154 31.2929 76.2995 32.8969 75.2678 33.8135C74.3212 34.6499 72.7822 35.0652 70.6508 35.0595V46.4366ZM58.7467 46.4366H54.9204V16.8339H64.6987V46.4366H60.8724V20.6577H58.7382L58.7467 46.4366Z" fill="#636258"/>
<path d="M0 23.0636L40.2782 9.54688L50.3712 10.9561L9.84636 24.5244L0 23.0636Z" fill="#1D262F"/>
<path d="M0 23.0635V13.5167L40.3037 0V9.53817L0 23.0635Z" fill="#C7A96F"/>
<path d="M40.2695 0.00878906L50.371 1.07431V10.9562L40.278 9.54696L40.2695 0.00878906Z" fill="#BCBCB7"/>
<path d="M40.2529 15.2871L50.2183 16.7393V71.674H40.2614L40.2529 15.2871Z" fill="url(#paint3_linear_13_4279)"/>
<path d="M211.765 52.4774V71.6483H209.375V57.7535L209.452 55.2787H209.341L207.241 71.6053H203.066V52.4774H205.464V65.5129L205.379 68.847H205.481L207.53 52.5204L211.765 52.4774ZM193.602 52.4774V71.6483H191.213V57.7535L191.29 55.2787H191.188L189.087 71.6053H184.904V52.4774H187.302V65.5129L187.225 68.847H187.327L189.368 52.5204L193.602 52.4774ZM172.515 71.6483H169.701V52.4774H176.112V54.9779H172.515V71.6483ZM155.765 55.5709V68.529C155.732 68.8563 155.807 69.1854 155.977 69.4657C156.065 69.5525 156.171 69.619 156.287 69.6605C156.403 69.7021 156.526 69.7177 156.649 69.7063C156.766 69.7209 156.884 69.7109 156.997 69.6768C157.109 69.6428 157.214 69.5855 157.304 69.5086C157.473 69.222 157.545 68.8868 157.508 68.5548V55.5709C157.538 55.2475 157.467 54.9226 157.304 54.6428C157.224 54.5514 157.123 54.4804 157.011 54.4356C156.899 54.3907 156.778 54.3734 156.657 54.385C156.534 54.3712 156.409 54.3849 156.292 54.4249C156.174 54.465 156.067 54.5306 155.977 54.617C155.804 54.9027 155.73 55.2379 155.765 55.5709ZM152.95 68.7696V55.3303C152.911 54.8359 152.998 54.3396 153.201 53.8885C153.405 53.4374 153.72 53.0463 154.115 52.7524C154.876 52.3131 155.738 52.082 156.615 52.082C157.492 52.082 158.353 52.3131 159.115 52.7524C159.519 53.0395 159.843 53.4283 160.053 53.8804C160.263 54.3325 160.353 54.8323 160.314 55.3303V68.7696C160.355 69.2643 160.27 69.7614 160.066 70.213C159.862 70.6645 159.546 71.0553 159.149 71.3475C158.387 71.8304 157.496 72.0644 156.598 72.0178C155.727 72.055 154.867 71.821 154.132 71.3475C153.732 71.0567 153.414 70.6667 153.207 70.2151C153 69.7636 152.911 69.2657 152.95 68.7696ZM139.175 55.0209V67.9619C139.175 70.6486 137.962 71.992 135.536 71.992V69.1735C135.764 69.1869 135.989 69.1201 136.174 68.9845C136.428 68.646 136.541 68.2203 136.488 67.7986V52.4774H143.563V71.6139H140.748V54.9779L139.175 55.0209ZM122.901 55.6138V68.572C122.868 68.8993 122.943 69.2283 123.113 69.5086C123.301 69.6585 123.533 69.74 123.772 69.74C124.012 69.74 124.244 69.6585 124.431 69.5086C124.601 69.222 124.673 68.8868 124.635 68.5548V55.5709C124.666 55.2475 124.595 54.9226 124.431 54.6428C124.351 54.5519 124.251 54.4813 124.138 54.4365C124.026 54.3918 123.905 54.3741 123.785 54.385C123.662 54.3712 123.537 54.3849 123.42 54.4249C123.302 54.465 123.195 54.5306 123.105 54.617C122.935 54.9037 122.863 55.2389 122.901 55.5709V55.6138ZM120.086 68.8126V55.3303C120.047 54.8359 120.134 54.3396 120.338 53.8885C120.542 53.4374 120.856 53.0463 121.251 52.7524C122.013 52.3131 122.874 52.082 123.751 52.082C124.628 52.082 125.49 52.3131 126.251 52.7524C126.656 53.0395 126.979 53.4283 127.189 53.8804C127.399 54.3325 127.489 54.8323 127.45 55.3303V68.7696C127.491 69.2643 127.406 69.7614 127.202 70.213C126.998 70.6645 126.682 71.0553 126.285 71.3475C125.523 71.8293 124.632 72.0633 123.734 72.0178C122.861 72.0568 121.997 71.8227 121.26 71.3475C120.862 71.0551 120.546 70.6646 120.34 70.2133C120.135 69.7619 120.047 69.2649 120.086 68.7696V68.8126ZM106.286 71.6483H103.463V52.4774H106.286V59.8158H107.859V52.4774H110.674V71.6483H107.859V62.3163H106.286V71.6483ZM88.6341 71.6483H85.9982L88.43 61.9125L86.2788 52.4602H89.2038C89.629 54.4939 89.9407 56.0521 90.1391 57.1348C90.3262 58.2175 90.4622 59.1713 90.5303 59.9876C90.6157 58.7643 90.8208 57.5525 91.1425 56.37C91.4146 55.4076 91.6101 54.6944 91.7292 54.2304L92.1798 52.4602H94.8157L92.5285 61.1993L94.8667 71.6311H91.9503L90.9384 66.9823C90.8194 66.3722 90.6833 65.5559 90.5218 64.5419C90.5218 64.2154 90.4282 63.7771 90.3517 63.2186C90.3274 64.5885 90.139 65.9504 89.7905 67.2745C89.388 68.7983 89.0111 70.2562 88.6596 71.6483H88.6341ZM77.9205 71.6483H71.6113V52.4774H77.8865V54.9779H74.4343V59.9017H77.7589V62.4023H74.4343V69.1477H77.946L77.9205 71.6483ZM54.9116 52.4774H62.6578V54.9779H60.2089V71.6483H57.386V54.9779H54.9116V52.4774Z" fill="#C8AA6F"/>
<path d="M211.765 46.4366H203.219V16.8339H211.722V20.6921H207.029V28.2625H211.722V32.1293H206.969V42.5697H211.739L211.765 46.4366ZM188.85 42.8705C189.441 42.9374 190.038 42.8077 190.55 42.501C190.958 42.1401 191.162 41.3152 191.162 40.0348V33.0316C191.111 32.3384 190.828 31.9431 190.312 31.8457C189.808 31.7444 189.295 31.6955 188.782 31.6997L188.85 42.8705ZM200.941 46.4022H197.114V16.8339H200.941V46.4022ZM188.85 16.8339V28.168C191.021 28.168 192.56 28.569 193.467 29.371C194.504 30.2876 195.023 31.9116 195.023 34.2432V40.6535C195.023 42.6471 194.547 44.1107 193.594 45.0445C192.642 45.9783 191.12 46.4423 189.028 46.4366H185.023V16.8339H188.85ZM176.946 46.4366H173.119V16.8339H176.946V28.168H179.071V16.8339H182.898V46.4366H179.071V32.0262H176.946V46.4366ZM164.82 32.6105V42.8705H165.577C165.806 42.8953 166.037 42.8628 166.251 42.7759C166.465 42.689 166.654 42.5503 166.802 42.3721C167.099 41.8115 167.226 41.1749 167.167 40.5418V34.9392C167.226 34.3061 167.099 33.6695 166.802 33.1089C166.654 32.9307 166.465 32.792 166.251 32.7051C166.037 32.6182 165.806 32.5857 165.577 32.6105H164.82ZM164.82 20.1937V29.1218H165.671C165.873 29.1429 166.078 29.1105 166.264 29.0276C166.45 28.9448 166.612 28.8144 166.734 28.6492C166.98 28.1125 167.086 27.5205 167.04 26.9306V22.3935C167.086 21.8053 166.986 21.2147 166.751 20.6749C166.624 20.5121 166.458 20.3847 166.269 20.305C166.08 20.2253 165.874 20.1958 165.671 20.2195L164.82 20.1937ZM160.994 46.4366V16.8339H166.41C167.039 16.7884 167.669 16.8921 168.251 17.1368C168.833 17.3815 169.35 17.7604 169.761 18.2431C170.576 19.3714 170.981 20.7492 170.908 22.1443V26.836C170.945 27.3274 170.88 27.821 170.718 28.2855C170.555 28.7501 170.299 29.1753 169.965 29.5342C169.209 30.1495 168.321 30.5764 167.371 30.7802C168.374 30.9581 169.305 31.42 170.058 32.1121C170.758 33.0886 171.081 34.2891 170.968 35.4892V40.1895C171.051 41.7496 170.672 43.2993 169.88 44.6406C169.496 45.2259 168.968 45.6996 168.348 46.0146C167.727 46.3297 167.036 46.4752 166.342 46.4366H160.994ZM158.868 16.8339V46.4366H155.603V24.9542L155.714 21.1217H155.603L152.746 46.4108H147.1V16.8339H150.348V36.9585L150.238 42.1143H150.382L153.154 16.8339H158.868ZM144.941 27.6266H141.148V21.6115C141.19 21.117 141.096 20.6205 140.876 20.1765C140.777 20.0452 140.648 19.9404 140.5 19.8715C140.352 19.8026 140.189 19.7716 140.026 19.7812C139.856 19.7638 139.685 19.7865 139.526 19.8477C139.366 19.9089 139.223 20.0067 139.108 20.1335C138.879 20.5898 138.784 21.1027 138.836 21.6115V41.6159C138.784 42.1184 138.885 42.6249 139.125 43.0681C139.235 43.1982 139.374 43.3002 139.531 43.3659C139.687 43.4316 139.857 43.4591 140.026 43.4462C140.185 43.4562 140.344 43.4296 140.491 43.3686C140.638 43.3076 140.77 43.2137 140.876 43.0939C141.104 42.6372 141.198 42.1247 141.148 41.6159V35.2228H144.975V42.0112C145.038 42.7489 144.926 43.4912 144.65 44.1769C144.373 44.8626 143.94 45.4722 143.385 45.9554C142.4 46.6804 141.201 47.0469 139.983 46.9951C138.779 47.0453 137.594 46.6785 136.625 45.9554C136.055 45.4795 135.606 44.8738 135.313 44.1882C135.02 43.5025 134.893 42.7564 134.941 42.0112V21.2334C134.886 20.4965 135 19.7565 135.276 19.072C135.552 18.3875 135.982 17.7772 136.531 17.2893C137.537 16.6073 138.721 16.2432 139.932 16.2432C141.144 16.2432 142.328 16.6073 143.334 17.2893C143.892 17.7712 144.33 18.3796 144.613 19.0649C144.895 19.7503 145.013 20.4933 144.958 21.2334L144.941 27.6266ZM132.926 27.6266H129.1V21.6115C129.141 21.117 129.047 20.6205 128.828 20.1765C128.729 20.0452 128.6 19.9404 128.451 19.8715C128.303 19.8026 128.14 19.7716 127.977 19.7812C127.808 19.7638 127.636 19.7865 127.477 19.8477C127.318 19.9089 127.174 20.0067 127.059 20.1335C126.83 20.5898 126.736 21.1027 126.787 21.6115V41.6159C126.735 42.1184 126.836 42.6249 127.076 43.0681C127.186 43.1982 127.325 43.3002 127.482 43.3659C127.639 43.4316 127.808 43.4591 127.977 43.4462C128.136 43.4562 128.295 43.4296 128.442 43.3686C128.59 43.3076 128.721 43.2137 128.828 43.0939C129.055 42.6372 129.149 42.1247 129.1 41.6159V35.2228H132.926V42.0112C132.987 42.7487 132.875 43.4903 132.598 44.1757C132.322 44.8611 131.89 45.4709 131.336 45.9554C130.351 46.6804 129.152 47.0469 127.935 46.9951C126.716 47.0553 125.515 46.688 124.534 45.9554C123.978 45.4717 123.543 44.8626 123.264 44.1773C122.985 43.4921 122.869 42.75 122.927 42.0112V21.2334C122.871 20.4965 122.986 19.7565 123.262 19.072C123.538 18.3875 123.967 17.7772 124.517 17.2893C125.523 16.6073 126.706 16.2432 127.918 16.2432C129.129 16.2432 130.313 16.6073 131.319 17.2893C131.878 17.7712 132.316 18.3796 132.598 19.0649C132.88 19.7503 132.998 20.4933 132.943 21.2334L132.926 27.6266ZM121.592 46.4366H113.004V16.8339H121.507V20.6921H116.83V28.2625H121.345V32.1293H116.83V42.5697H121.592V46.4366ZM104.705 20.3656V31.5364H105.139C105.602 31.562 106.066 31.4766 106.49 31.2872C106.671 31.1759 106.819 31.0174 106.918 30.8283C107.016 30.6392 107.063 30.4266 107.052 30.2131V23.184C107.052 21.9123 106.865 21.096 106.473 20.7351C105.94 20.4189 105.319 20.289 104.705 20.3656ZM104.705 46.4366H100.887V16.8339H104.892C107.006 16.8339 108.531 17.2893 109.467 18.2001C110.41 19.1196 110.878 20.5804 110.878 22.6083V29.0015C110.878 31.2929 110.362 32.8969 109.33 33.8135C108.384 34.6499 106.842 35.0652 104.705 35.0595V46.4366ZM94.782 46.4366H90.9812V16.8339H99.6542V20.6921H94.782V46.4366ZM82.6654 21.6115V41.6159C82.6139 42.1184 82.7147 42.6249 82.9545 43.0681C83.1939 43.3023 83.5141 43.4332 83.8473 43.4332C84.1805 43.4332 84.5006 43.3023 84.7401 43.0681C84.9637 42.6103 85.055 42.0981 85.0037 41.5901V21.6115C85.047 21.1178 84.9559 20.6216 84.7401 20.1765C84.6408 20.0458 84.5115 19.9414 84.3633 19.8725C84.2152 19.8037 84.0526 19.7723 83.8898 19.7812C83.719 19.7651 83.5468 19.7884 83.3862 19.8494C83.2256 19.9105 83.0809 20.0076 82.963 20.1335C82.7263 20.5874 82.6231 21.1003 82.6654 21.6115ZM78.8391 42.0112V21.2334C78.7825 20.4972 78.8959 19.7576 79.1704 19.0732C79.4448 18.3888 79.8728 17.7781 80.4206 17.2893C81.4265 16.6073 82.6105 16.2432 83.8218 16.2432C85.0331 16.2432 86.217 16.6073 87.2229 17.2893C87.7832 17.7699 88.2226 18.378 88.5049 19.0637C88.7873 19.7494 88.9045 20.493 88.847 21.2334V42.0112C88.91 42.7489 88.7987 43.4912 88.5222 44.1769C88.2458 44.8626 87.8121 45.4722 87.2569 45.9554C86.2727 46.6817 85.0734 47.0483 83.8558 46.9951C82.6543 47.0455 81.472 46.6785 80.5056 45.9554C79.9376 45.4791 79.4901 44.8729 79.2003 44.187C78.9105 43.501 78.7866 42.7552 78.8391 42.0112ZM70.6508 20.3656V31.5364H71.0759C71.5424 31.5608 72.0081 31.4755 72.4364 31.2872C72.6142 31.1735 72.7591 31.0142 72.8562 30.8255C72.9533 30.6368 72.9991 30.4255 72.9891 30.2131V23.184C72.9891 21.9123 72.802 21.096 72.4109 20.7351C71.8804 20.4196 71.2617 20.2897 70.6508 20.3656ZM70.6508 46.4366H66.8245V16.8339H70.8293C72.9466 16.8339 74.4686 17.2893 75.4124 18.2001C76.3562 19.111 76.8154 20.5804 76.8154 22.6083V29.0015C76.8154 31.2929 76.2995 32.8969 75.2678 33.8135C74.3212 34.6499 72.7822 35.0652 70.6508 35.0595V46.4366ZM58.7467 46.4366H54.9204V16.8339H64.6987V46.4366H60.8724V20.6577H58.7382L58.7467 46.4366Z" fill="white"/>
</g>
<defs>
<linearGradient id="paint0_linear_13_4279" x1="14.455" y1="27.9273" x2="24.8639" y2="71.2724" gradientUnits="userSpaceOnUse">
<stop offset="0.223958" stop-color="#636258"/>
<stop offset="0.671275" stop-color="#AFAFAB"/>
<stop offset="1" stop-color="white" stop-opacity="0"/>
</linearGradient>
<linearGradient id="paint1_linear_13_4279" x1="15.3479" y1="34.75" x2="15.3479" y2="71.6739" gradientUnits="userSpaceOnUse">
<stop stop-color="#BABAB5"/>
<stop offset="1" stop-color="white" stop-opacity="0"/>
</linearGradient>
<linearGradient id="paint2_linear_13_4279" x1="25.3175" y1="32.4814" x2="25.3175" y2="71.6739" gradientUnits="userSpaceOnUse">
<stop stop-color="#BDA872"/>
<stop offset="1" stop-color="#BDA872"/>
</linearGradient>
<linearGradient id="paint3_linear_13_4279" x1="45.2356" y1="15.2871" x2="45.2356" y2="71.674" gradientUnits="userSpaceOnUse">
<stop stop-color="#BFBFBB"/>
<stop offset="0.515625" stop-color="#BABAB5"/>
<stop offset="1" stop-color="#BABAB5"/>
</linearGradient>
<clipPath id="clip0_13_4279">
<rect width="211.765" height="72" fill="white"/>
</clipPath>
</defs>
</svg>
