<svg width="16" height="16" viewBox="0 0 16 16" fill="none" xmlns="http://www.w3.org/2000/svg">
<path d="M8.00528 15.6675H2.14528C1.85891 15.6884 1.57139 15.6473 1.3023 15.5471C1.0332 15.447 0.788823 15.29 0.585787 15.087C0.38275 14.884 0.225813 14.6396 0.125645 14.3705C0.0254764 14.1014 -0.0155741 13.8139 0.00528404 13.5275V11.0075C0.00410648 10.8428 0.0636108 10.6835 0.172438 10.5599C0.281265 10.4363 0.431792 10.3572 0.595284 10.3375C0.756706 10.3209 0.918667 10.3635 1.05109 10.4572C1.18351 10.551 1.27738 10.6897 1.31528 10.8475C1.32561 10.9372 1.32561 11.0278 1.31528 11.1175V13.5875C1.3042 13.6887 1.31598 13.7911 1.34975 13.8871C1.38352 13.9832 1.43842 14.0704 1.51041 14.1424C1.58239 14.2144 1.66962 14.2693 1.76566 14.303C1.86169 14.3368 1.96409 14.3486 2.06528 14.3375H13.9253C14.0265 14.3486 14.1289 14.3368 14.2249 14.303C14.3209 14.2693 14.4082 14.2144 14.4802 14.1424C14.5521 14.0704 14.607 13.9832 14.6408 13.8871C14.6746 13.7911 14.6864 13.6887 14.6753 13.5875C14.6753 12.7275 14.6753 11.8675 14.6753 11.0075C14.6719 10.8422 14.7306 10.6817 14.8398 10.5576C14.9491 10.4335 15.1009 10.355 15.2653 10.3375C15.4267 10.3209 15.5887 10.3635 15.7211 10.4572C15.8535 10.551 15.9474 10.6897 15.9853 10.8475C15.9951 10.9305 15.9951 11.0145 15.9853 11.0975V13.5975C15.9951 13.872 15.9482 14.1455 15.8477 14.4011C15.7471 14.6567 15.595 14.8888 15.4008 15.083C15.2066 15.2772 14.9744 15.4293 14.7189 15.5299C14.4633 15.6304 14.1898 15.6773 13.9153 15.6675H8.00528Z" fill="white"/>
<path d="M7.33538 10.9378V1.81783C7.32006 1.70836 7.32006 1.59729 7.33538 1.48783C7.37568 1.33142 7.47276 1.19563 7.60771 1.10689C7.74267 1.01816 7.90582 0.982841 8.06538 1.00783C8.2224 1.02394 8.36869 1.09497 8.47846 1.2084C8.58823 1.32182 8.65443 1.47036 8.66538 1.62783C8.67037 1.70441 8.67037 1.78124 8.66538 1.85783V10.9478L9.58538 10.2178L10.9154 9.14783C10.9761 9.06741 11.0541 9.00171 11.1436 8.95562C11.2332 8.90952 11.332 8.88421 11.4327 8.88158C11.5334 8.87894 11.6334 8.89905 11.7253 8.9404C11.8171 8.98175 11.8985 9.04328 11.9633 9.12041C12.0281 9.19754 12.0746 9.28829 12.0995 9.3859C12.1244 9.48352 12.1269 9.58548 12.1069 9.68422C12.087 9.78295 12.045 9.87591 11.9841 9.95617C11.9232 10.0364 11.8451 10.1019 11.7554 10.1478L8.47538 12.8078C8.41398 12.8701 8.34081 12.9196 8.26012 12.9533C8.17944 12.9871 8.09285 13.0045 8.00538 13.0045C7.91792 13.0045 7.83133 12.9871 7.75065 12.9533C7.66996 12.9196 7.59679 12.8701 7.53538 12.8078C6.46538 12.0078 5.39538 11.1078 4.33538 10.2478C4.25392 10.1967 4.18463 10.1283 4.13235 10.0476C4.08007 9.96685 4.04608 9.87566 4.03274 9.7804C4.01941 9.68514 4.02705 9.58811 4.05515 9.49612C4.08324 9.40413 4.1311 9.31938 4.19538 9.24783C4.25315 9.17274 4.32617 9.11076 4.40965 9.06597C4.49312 9.02118 4.58515 8.9946 4.67965 8.98798C4.77415 8.98137 4.86898 8.99487 4.95788 9.02759C5.04678 9.06032 5.12773 9.11152 5.19538 9.17783L7.19538 10.7578L7.33538 10.9378Z" fill="white"/>
</svg>
