<svg width="16" height="16" viewBox="0 0 16 16" fill="none" xmlns="http://www.w3.org/2000/svg">
<path d="M9.28812 1.33301H7.68262C7.4608 1.33301 7.28125 1.51195 7.28125 1.73301C7.28125 1.95407 7.4608 2.13301 7.68262 2.13301H9.28812C9.50994 2.13301 9.6895 1.95407 9.6895 1.73301C9.6895 1.51195 9.50994 1.33301 9.28812 1.33301Z" fill="white"/>
<path d="M11.0274 0H4.60549C3.72034 0 3 0.717875 3 1.6V14.4C3 15.2821 3.72034 16 4.60549 16H11.0274C11.9126 16 12.6329 15.2821 12.6329 14.4V1.6C12.6329 0.717875 11.9126 0 11.0274 0ZM11.8302 14.4C11.8302 14.8419 11.4708 15.2 11.0274 15.2H4.60549C4.1621 15.2 3.80274 14.8419 3.80274 14.4V1.6C3.80274 1.15813 4.1621 0.8 4.60549 0.8H11.0274C11.4708 0.8 11.8302 1.15813 11.8302 1.6V14.4Z" fill="white"/>
<path d="M7.81642 14.6664C8.25976 14.6664 8.61916 14.3082 8.61916 13.8664C8.61916 13.4246 8.25976 13.0664 7.81642 13.0664C7.37307 13.0664 7.01367 13.4246 7.01367 13.8664C7.01367 14.3082 7.37307 14.6664 7.81642 14.6664Z" fill="white"/>
<path d="M6.34473 2.13301C6.5664 2.13301 6.7461 1.95392 6.7461 1.73301C6.7461 1.51209 6.5664 1.33301 6.34473 1.33301C6.12306 1.33301 5.94336 1.51209 5.94336 1.73301C5.94336 1.95392 6.12306 2.13301 6.34473 2.13301Z" fill="white"/>
</svg>
