<svg width="64" height="64" viewBox="0 0 64 64" fill="none" xmlns="http://www.w3.org/2000/svg">
<path d="M37.4876 0C37.8043 0.212201 38.1095 0.441096 38.4019 0.685714C43.7901 6.08 49.1874 11.4773 54.5939 16.8777C54.8186 17.0894 54.9959 17.3464 55.1141 17.6316C55.2323 17.9169 55.2887 18.2239 55.2796 18.5326C55.2796 31.7775 55.2796 45.0194 55.2796 58.2583C55.2796 61.3303 53.963 63.0674 50.9825 63.9177C50.9825 63.9177 50.9185 63.9726 50.891 64H12.619L11.8876 63.7623C10.8349 63.4485 9.91111 62.8044 9.25257 61.9252C8.59403 61.0461 8.23568 59.9784 8.23047 58.88C8.23047 40.96 8.23047 23.04 8.23047 5.12V5.056C8.26114 4.0296 8.5954 3.03534 9.19102 2.19887C9.78663 1.36241 10.6169 0.721297 11.5768 0.356571C11.8876 0.228571 12.2716 0.118857 12.619 0H37.4876ZM52.747 19.3737H41.547C40.7902 19.4283 40.0306 19.3192 39.3197 19.054C38.6088 18.7887 37.9633 18.3735 37.4272 17.8366C36.8912 17.2996 36.477 16.6535 36.2129 15.9422C35.9488 15.2308 35.841 14.471 35.8968 13.7143V2.52343H13.8533C11.7962 2.52343 10.7448 3.57486 10.7448 5.64114V58.3131C10.7448 60.4282 11.7901 61.4827 13.8808 61.4766H49.6202C51.6865 61.4766 52.747 60.4251 52.747 58.368V19.3737ZM38.475 4.57143C38.475 4.69029 38.475 4.864 38.475 5.03771C38.475 7.97257 38.475 10.9166 38.475 13.8514C38.4395 14.2529 38.493 14.6573 38.6315 15.0358C38.7701 15.4144 38.9904 15.7577 39.2767 16.0414C39.563 16.3251 39.9083 16.5422 40.2881 16.6773C40.6679 16.8123 41.0727 16.862 41.4739 16.8229H50.2876C50.4613 16.8229 50.635 16.8229 50.7356 16.8229L38.475 4.57143Z" fill="#BFA372"/>
<path d="M31.7452 45.9708H21.8801C20.9658 45.9708 20.3532 45.4496 20.3715 44.6725C20.3898 43.8953 20.9383 43.4199 21.8526 43.4199C28.4538 43.4199 35.0519 43.4199 41.6469 43.4199C42.5612 43.4199 43.1189 43.9228 43.1189 44.6816C43.1189 45.4405 42.5521 45.9616 41.6012 45.9616L31.7452 45.9708Z" fill="#BFA372"/>
<path d="M31.7549 34.6514H22.1366C21.9264 34.6514 21.7161 34.6514 21.5149 34.6514C21.2114 34.6291 20.9269 34.4954 20.7159 34.276C20.505 34.0566 20.3825 33.767 20.3721 33.4629C20.3602 33.1586 20.4579 32.8601 20.6475 32.6219C20.8371 32.3836 21.106 32.2213 21.4052 32.1646C21.6153 32.1509 21.826 32.1509 22.0361 32.1646H41.8852C42.0525 32.1681 42.2174 32.2049 42.3704 32.2727C42.5233 32.3406 42.6612 32.4382 42.7761 32.5599C42.8909 32.6815 42.9805 32.8248 43.0394 32.9814C43.0984 33.138 43.1256 33.3048 43.1195 33.472C43.1171 33.6333 43.0827 33.7925 43.0183 33.9403C42.9538 34.0881 42.8606 34.2217 42.744 34.3331C42.6274 34.4446 42.4899 34.5318 42.3393 34.5895C42.1887 34.6473 42.0281 34.6746 41.8669 34.6697C40.8886 34.6697 39.9104 34.6697 38.9321 34.6697L31.7549 34.6514Z" fill="#BFA372"/>
<path d="M31.7528 40.3017H22.1985C21.9488 40.3154 21.6985 40.3154 21.4488 40.3017C21.1647 40.2626 20.9029 40.1265 20.7077 39.9165C20.5125 39.7064 20.3958 39.4354 20.3775 39.1492C20.3592 38.863 20.4404 38.5793 20.6073 38.3462C20.7742 38.113 21.0166 37.9447 21.2934 37.8697C21.5328 37.8126 21.7788 37.788 22.0248 37.7966H41.4443C41.7153 37.7903 41.986 37.8211 42.2488 37.888C42.4896 37.9884 42.6923 38.1625 42.828 38.3853C42.9636 38.6081 43.0252 38.8681 43.0039 39.1281C42.9826 39.3881 42.8794 39.6346 42.7093 39.8323C42.5391 40.03 42.3107 40.1687 42.0568 40.2286C41.8103 40.2468 41.5628 40.2468 41.3162 40.2286L31.7528 40.3017Z" fill="#BFA372"/>
<path d="M28.4999 49.0878C30.6851 49.0878 32.8702 49.0878 35.0553 49.0878C35.4994 49.1022 35.9239 49.274 36.2531 49.5723C36.3923 49.7246 36.4895 49.9104 36.5351 50.1117C36.5807 50.3129 36.5732 50.5225 36.5132 50.7199C36.4533 50.9173 36.343 51.0957 36.1931 51.2376C36.0433 51.3794 35.8592 51.4798 35.6588 51.5289C35.4173 51.5928 35.1678 51.6206 34.9182 51.6112H21.6702C21.4967 51.6138 21.3244 51.5811 21.1639 51.515C21.0034 51.4489 20.858 51.3509 20.7366 51.2269C20.6152 51.1029 20.5202 50.9555 20.4575 50.7937C20.3948 50.6318 20.3657 50.4589 20.3719 50.2855C20.3739 50.1181 20.4102 49.953 20.4785 49.8002C20.5469 49.6475 20.6457 49.5103 20.7691 49.3972C20.8925 49.2841 21.0377 49.1975 21.1958 49.1427C21.3539 49.0879 21.5216 49.0661 21.6885 49.0786L28.4999 49.0878Z" fill="#BFA372"/>
</svg>
