<svg width="17" height="17" viewBox="0 0 17 17" fill="none" xmlns="http://www.w3.org/2000/svg">
<g clip-path="url(#clip0_13_13426)">
<path d="M14.5547 2.83984H1.5547C0.727541 2.83984 0.0546875 3.5127 0.0546875 4.33985V13.3399C0.0546875 14.167 0.727541 14.8399 1.5547 14.8399H14.5547C15.3818 14.8399 16.0547 14.167 16.0547 13.3399V4.33985C16.0547 3.5127 15.3818 2.83984 14.5547 2.83984ZM14.5547 3.83984C14.6226 3.83984 14.6872 3.85393 14.7463 3.87855L8.05469 9.67823L1.36302 3.87855C1.4221 3.85397 1.48673 3.83984 1.55466 3.83984H14.5547ZM14.5547 13.8398H1.5547C1.27882 13.8398 1.05468 13.6157 1.05468 13.3398V4.93506L7.72704 10.7178C7.8213 10.7993 7.93799 10.8398 8.05469 10.8398C8.17138 10.8398 8.28808 10.7993 8.38233 10.7178L15.0547 4.93506V13.3399C15.0547 13.6157 14.8306 13.8398 14.5547 13.8398Z" fill="#BFA372"/>
</g>
<defs>
<clipPath id="clip0_13_13426">
<rect width="16" height="16" fill="white" transform="translate(0.0546875 0.839844)"/>
</clipPath>
</defs>
</svg>
